<mxfile host="app.diagrams.net" modified="2022-09-13T17:01:36.759Z" agent="5.0 (Macintosh; Intel Mac OS X 10_15_7) AppleWebKit/537.36 (KHTML, like Gecko) Chrome/105.0.0.0 Safari/537.36" etag="f6-fH9GRjuMVZr_iUkId" version="20.3.0" type="github" pages="2">
  <diagram name="Option1-Current model" id="c7558073-3199-34d8-9f00-42111426c3f3">
    <mxGraphModel dx="4012" dy="1129" grid="1" gridSize="10" guides="1" tooltips="1" connect="1" arrows="1" fold="1" page="1" pageScale="1" pageWidth="826" pageHeight="1169" background="none" math="0" shadow="0">
      <root>
        <mxCell id="0" />
        <mxCell id="1" parent="0" />
        <mxCell id="Ny2sJHAwF01NyMqJJar9-43" value="" style="rounded=0;whiteSpace=wrap;html=1;fillColor=none;" parent="1" vertex="1">
          <mxGeometry x="19.12" y="1510" width="240.88" height="270" as="geometry" />
        </mxCell>
        <mxCell id="6HwekPEUJJvmb9f2ZytO-71" value="Operations / Utilities&amp;nbsp;" style="rounded=0;whiteSpace=wrap;html=1;fontSize=17;verticalAlign=top;fontStyle=1;dashed=1;" parent="1" vertex="1">
          <mxGeometry x="-100" y="1169" width="500" height="280" as="geometry" />
        </mxCell>
        <mxCell id="6HwekPEUJJvmb9f2ZytO-70" value="Data ingestion and Transformation - GLM" style="rounded=0;whiteSpace=wrap;html=1;fontSize=17;verticalAlign=top;fontStyle=1;dashed=1;" parent="1" vertex="1">
          <mxGeometry x="-100" y="790" width="760" height="360" as="geometry" />
        </mxCell>
        <mxCell id="GpAK6kvn8NzfmqvFaqoF-188" value="Validation, business rules and deduplication - Location" style="rounded=0;whiteSpace=wrap;html=1;fontSize=17;verticalAlign=top;fontStyle=1;dashed=1;" parent="1" vertex="1">
          <mxGeometry x="670" y="790" width="870" height="360" as="geometry" />
        </mxCell>
        <mxCell id="2" value="&lt;p style=&quot;margin: 0px; margin-top: 4px; text-align: center; text-decoration: underline;&quot;&gt;&lt;strong&gt;Source ingestion&lt;br&gt;&lt;/strong&gt;&lt;/p&gt;&lt;hr&gt;&lt;p style=&quot;margin: 0px; margin-left: 8px;&quot;&gt;NDS Kafka&amp;nbsp;&lt;/p&gt;&lt;p style=&quot;margin: 0px; margin-left: 8px;&quot;&gt;connector&lt;/p&gt;" style="verticalAlign=middle;align=center;overflow=fill;fontSize=12;fontFamily=Helvetica;html=1;rounded=1;fontStyle=1;strokeWidth=3;fillColor=#E6FFCC" parent="1" vertex="1">
          <mxGeometry x="40" y="864" width="110" height="66" as="geometry" />
        </mxCell>
        <mxCell id="4" value="GLM" style="whiteSpace=wrap;align=center;verticalAlign=middle;fontStyle=1;strokeWidth=3;fillColor=#FFFFCC" parent="1" vertex="1">
          <mxGeometry x="-70" y="937" width="90" height="60" as="geometry" />
        </mxCell>
        <mxCell id="GpAK6kvn8NzfmqvFaqoF-97" value="&lt;u&gt;GLM ingestion topics&lt;/u&gt;" style="verticalAlign=middle;align=center;overflow=fill;fontSize=12;fontFamily=Helvetica;html=1;rounded=1;fontStyle=1;strokeWidth=3;" parent="1" vertex="1">
          <mxGeometry x="200" y="950" width="180" height="70" as="geometry" />
        </mxCell>
        <mxCell id="GpAK6kvn8NzfmqvFaqoF-96" value="" style="outlineConnect=0;dashed=0;verticalLabelPosition=bottom;verticalAlign=top;align=center;html=1;shape=mxgraph.aws3.queue;fillColor=#D9A741;gradientColor=none;" parent="1" vertex="1">
          <mxGeometry x="204.25" y="980" width="55.75" height="10" as="geometry" />
        </mxCell>
        <mxCell id="GpAK6kvn8NzfmqvFaqoF-98" value="" style="outlineConnect=0;dashed=0;verticalLabelPosition=bottom;verticalAlign=top;align=center;html=1;shape=mxgraph.aws3.queue;fillColor=#D9A741;gradientColor=none;" parent="1" vertex="1">
          <mxGeometry x="204.25" y="1000" width="55.75" height="10" as="geometry" />
        </mxCell>
        <mxCell id="GpAK6kvn8NzfmqvFaqoF-100" value="Initial" style="text;spacingTop=-5;align=center" parent="1" vertex="1">
          <mxGeometry x="276" y="974" width="30" height="20" as="geometry" />
        </mxCell>
        <mxCell id="GpAK6kvn8NzfmqvFaqoF-101" value="Delta Load" style="text;spacingTop=-5;align=center" parent="1" vertex="1">
          <mxGeometry x="291" y="994" width="30" height="20" as="geometry" />
        </mxCell>
        <mxCell id="GpAK6kvn8NzfmqvFaqoF-103" value="" style="outlineConnect=0;dashed=0;verticalLabelPosition=bottom;verticalAlign=top;align=center;html=1;shape=mxgraph.aws3.queue;fillColor=#D9A741;gradientColor=none;" parent="1" vertex="1">
          <mxGeometry x="210.25" y="975" width="55.75" height="10" as="geometry" />
        </mxCell>
        <mxCell id="GpAK6kvn8NzfmqvFaqoF-104" value="" style="outlineConnect=0;dashed=0;verticalLabelPosition=bottom;verticalAlign=top;align=center;html=1;shape=mxgraph.aws3.queue;fillColor=#D9A741;gradientColor=none;" parent="1" vertex="1">
          <mxGeometry x="210.25" y="995" width="55.75" height="10" as="geometry" />
        </mxCell>
        <mxCell id="GpAK6kvn8NzfmqvFaqoF-107" value="&lt;p style=&quot;margin: 4px 0px 0px; text-align: center;&quot;&gt;&lt;strong style=&quot;text-decoration: underline;&quot;&gt;M1 : GLM Source&amp;nbsp;&lt;/strong&gt;&lt;u&gt;transformation&lt;/u&gt;&lt;/p&gt;&lt;p style=&quot;margin: 4px 0px 0px; text-align: center;&quot;&gt;&lt;u&gt;&lt;br&gt;&lt;/u&gt;&lt;/p&gt;&lt;p style=&quot;margin: 4px 0px 0px; text-align: center;&quot;&gt;&lt;u&gt;&lt;br&gt;&lt;/u&gt;&lt;/p&gt;&lt;p style=&quot;margin: 4px 0px 0px; text-align: center;&quot;&gt;&lt;u&gt;&lt;br&gt;&lt;/u&gt;&lt;/p&gt;&lt;p style=&quot;margin: 4px 0px 0px; text-align: center;&quot;&gt;&lt;u&gt;&lt;br&gt;&lt;/u&gt;&lt;/p&gt;&lt;p style=&quot;margin: 4px 0px 0px; text-align: center;&quot;&gt;- &lt;span style=&quot;font-weight: normal;&quot;&gt;&lt;font style=&quot;font-size: 11px;&quot;&gt;Cross topic data stitching&lt;/font&gt;&lt;/span&gt;&lt;/p&gt;&lt;p style=&quot;margin: 4px 0px 0px; text-align: center;&quot;&gt;&lt;span style=&quot;font-weight: normal;&quot;&gt;&lt;font style=&quot;font-size: 10px;&quot;&gt;- Cross source data stitching&lt;/font&gt;&lt;/span&gt;&lt;/p&gt;&lt;p style=&quot;margin: 4px 0px 0px; text-align: center;&quot;&gt;&lt;span style=&quot;font-weight: normal;&quot;&gt;&lt;font style=&quot;font-size: 10px;&quot;&gt;- Event validation&lt;/font&gt;&lt;/span&gt;&lt;/p&gt;&lt;p style=&quot;margin: 4px 0px 0px; text-align: center;&quot;&gt;&lt;span style=&quot;font-weight: normal;&quot;&gt;&lt;font style=&quot;font-size: 10px;&quot;&gt;- Transformations&lt;/font&gt;&lt;/span&gt;&lt;/p&gt;" style="verticalAlign=middle;align=center;overflow=fill;fontSize=12;fontFamily=Helvetica;html=1;rounded=1;fontStyle=1;strokeWidth=3;fillColor=#dae8fc;strokeColor=#6c8ebf;" parent="1" vertex="1">
          <mxGeometry x="440" y="850" width="200" height="170" as="geometry" />
        </mxCell>
        <mxCell id="GpAK6kvn8NzfmqvFaqoF-116" value="&lt;span style=&quot;background-color: rgb(255, 255, 255);&quot;&gt;data-market&lt;/span&gt;&lt;span style=&quot;background-color: rgb(255, 255, 255);&quot;&gt;-&lt;/span&gt;&lt;span style=&quot;background-color: rgb(255, 255, 255);&quot;&gt;&lt;br&gt;place-glm-source&lt;br&gt;-transformer&lt;/span&gt;" style="shape=hexagon;perimeter=hexagonPerimeter2;whiteSpace=wrap;html=1;fixedSize=1;fontSize=12;" parent="1" vertex="1">
          <mxGeometry x="452.5" y="875" width="167.5" height="55" as="geometry" />
        </mxCell>
        <mxCell id="GpAK6kvn8NzfmqvFaqoF-119" value="" style="curved=1;endArrow=classic;html=1;rounded=0;entryX=-0.004;entryY=0.706;entryDx=0;entryDy=0;entryPerimeter=0;" parent="1" source="GpAK6kvn8NzfmqvFaqoF-101" target="GpAK6kvn8NzfmqvFaqoF-107" edge="1">
          <mxGeometry width="50" height="50" relative="1" as="geometry">
            <mxPoint x="365.8571428571429" y="1105" as="sourcePoint" />
            <mxPoint x="331" y="985" as="targetPoint" />
            <Array as="points">
              <mxPoint x="390" y="1035" />
            </Array>
          </mxGeometry>
        </mxCell>
        <mxCell id="GpAK6kvn8NzfmqvFaqoF-122" value="" style="curved=1;endArrow=classic;html=1;rounded=0;entryX=-0.004;entryY=0.66;entryDx=0;entryDy=0;entryPerimeter=0;" parent="1" source="GpAK6kvn8NzfmqvFaqoF-100" target="GpAK6kvn8NzfmqvFaqoF-107" edge="1">
          <mxGeometry width="50" height="50" relative="1" as="geometry">
            <mxPoint x="304.4450632911392" y="1084.0000000000002" as="sourcePoint" />
            <mxPoint x="439.9970000000001" y="886.97" as="targetPoint" />
            <Array as="points">
              <mxPoint x="390.04" y="1015" />
            </Array>
          </mxGeometry>
        </mxCell>
        <mxCell id="GpAK6kvn8NzfmqvFaqoF-123" value="&lt;u&gt;Location Source transformation&lt;br&gt;&amp;nbsp;topic&lt;/u&gt;" style="verticalAlign=middle;align=center;overflow=fill;fontSize=12;fontFamily=Helvetica;html=1;rounded=1;fontStyle=1;strokeWidth=3;" parent="1" vertex="1">
          <mxGeometry x="681" y="1050" width="189" height="50" as="geometry" />
        </mxCell>
        <mxCell id="GpAK6kvn8NzfmqvFaqoF-124" value="" style="outlineConnect=0;dashed=0;verticalLabelPosition=bottom;verticalAlign=top;align=center;html=1;shape=mxgraph.aws3.queue;fillColor=#D9A741;gradientColor=none;" parent="1" vertex="1">
          <mxGeometry x="731.63" y="1080" width="55.75" height="10" as="geometry" />
        </mxCell>
        <mxCell id="GpAK6kvn8NzfmqvFaqoF-127" value="Partition0" style="text;spacingTop=-5;align=center" parent="1" vertex="1">
          <mxGeometry x="818.38" y="1075" width="30" height="20" as="geometry" />
        </mxCell>
        <mxCell id="GpAK6kvn8NzfmqvFaqoF-133" value="" style="curved=1;endArrow=classic;html=1;rounded=0;exitX=0.5;exitY=1;exitDx=0;exitDy=0;" parent="1" target="GpAK6kvn8NzfmqvFaqoF-124" edge="1">
          <mxGeometry width="50" height="50" relative="1" as="geometry">
            <mxPoint x="631" y="1020" as="sourcePoint" />
            <mxPoint x="341" y="1070" as="targetPoint" />
            <Array as="points">
              <mxPoint x="671" y="1085" />
            </Array>
          </mxGeometry>
        </mxCell>
        <mxCell id="GpAK6kvn8NzfmqvFaqoF-134" value="&lt;u&gt;NDS Exception topics&lt;/u&gt;" style="verticalAlign=middle;align=center;overflow=fill;fontSize=12;fontFamily=Helvetica;html=1;rounded=1;fontStyle=1;strokeWidth=3;fillColor=#f8cecc;strokeColor=#b85450;" parent="1" vertex="1">
          <mxGeometry x="-46.25" y="1219" width="180" height="50" as="geometry" />
        </mxCell>
        <mxCell id="GpAK6kvn8NzfmqvFaqoF-135" value="" style="outlineConnect=0;dashed=0;verticalLabelPosition=bottom;verticalAlign=top;align=center;html=1;shape=mxgraph.aws3.queue;fillColor=#D9A741;gradientColor=none;" parent="1" vertex="1">
          <mxGeometry x="-42" y="1249" width="55.75" height="10" as="geometry" />
        </mxCell>
        <mxCell id="GpAK6kvn8NzfmqvFaqoF-138" value="Partition0" style="text;spacingTop=-5;align=center" parent="1" vertex="1">
          <mxGeometry x="29.75" y="1243" width="30" height="20" as="geometry" />
        </mxCell>
        <mxCell id="GpAK6kvn8NzfmqvFaqoF-142" value="&lt;p style=&quot;margin: 4px 0px 0px; text-align: center;&quot;&gt;&lt;u&gt;M2 : Location Rules engine&lt;/u&gt;&lt;/p&gt;&lt;p style=&quot;margin: 4px 0px 0px; text-align: center;&quot;&gt;&lt;u&gt;&lt;br&gt;&lt;/u&gt;&lt;/p&gt;&lt;p style=&quot;margin: 4px 0px 0px; text-align: center;&quot;&gt;&lt;u&gt;&lt;br&gt;&lt;/u&gt;&lt;/p&gt;&lt;p style=&quot;margin: 4px 0px 0px; text-align: center;&quot;&gt;&lt;u&gt;&lt;br&gt;&lt;/u&gt;&lt;/p&gt;&lt;p style=&quot;margin: 4px 0px 0px; text-align: center;&quot;&gt;&lt;u&gt;&lt;br&gt;&lt;/u&gt;&lt;/p&gt;&lt;p style=&quot;margin: 4px 0px 0px; text-align: center;&quot;&gt;&lt;u&gt;&lt;br&gt;&lt;/u&gt;&lt;/p&gt;&lt;p style=&quot;margin: 4px 0px 0px; text-align: center;&quot;&gt;- &lt;span style=&quot;font-weight: normal;&quot;&gt;&lt;font style=&quot;font-size: 11px;&quot;&gt;Encryption&lt;/font&gt;&lt;/span&gt;&lt;/p&gt;&lt;p style=&quot;margin: 4px 0px 0px; text-align: center;&quot;&gt;&lt;span style=&quot;font-weight: normal;&quot;&gt;&lt;font style=&quot;font-size: 10px;&quot;&gt;- Obfuscation&lt;/font&gt;&lt;/span&gt;&lt;/p&gt;&lt;p style=&quot;margin: 4px 0px 0px; text-align: center;&quot;&gt;&lt;span style=&quot;font-weight: normal;&quot;&gt;&lt;font style=&quot;font-size: 10px;&quot;&gt;- Privacy&amp;nbsp;&lt;/font&gt;&lt;/span&gt;&lt;font size=&quot;1&quot;&gt;&lt;span style=&quot;font-weight: 400;&quot;&gt;filtering&lt;/span&gt;&lt;/font&gt;&lt;/p&gt;" style="verticalAlign=middle;align=center;overflow=fill;fontSize=12;fontFamily=Helvetica;html=1;rounded=1;fontStyle=1;strokeWidth=3;fillColor=#dae8fc;strokeColor=#6c8ebf;" parent="1" vertex="1">
          <mxGeometry x="896.5" y="850" width="160" height="170" as="geometry" />
        </mxCell>
        <mxCell id="GpAK6kvn8NzfmqvFaqoF-143" value="data-market-place-&lt;span style=&quot;background-color: rgb(255, 255, 255);&quot;&gt;location-&lt;/span&gt;&lt;br&gt;rules-engine" style="shape=hexagon;perimeter=hexagonPerimeter2;whiteSpace=wrap;html=1;fixedSize=1;fontSize=12;" parent="1" vertex="1">
          <mxGeometry x="911.5" y="875" width="130" height="55" as="geometry" />
        </mxCell>
        <mxCell id="GpAK6kvn8NzfmqvFaqoF-148" value="" style="curved=1;endArrow=classic;html=1;rounded=0;entryX=0.004;entryY=0.651;entryDx=0;entryDy=0;entryPerimeter=0;exitX=1;exitY=0.25;exitDx=0;exitDy=0;" parent="1" source="GpAK6kvn8NzfmqvFaqoF-127" target="GpAK6kvn8NzfmqvFaqoF-142" edge="1">
          <mxGeometry width="50" height="50" relative="1" as="geometry">
            <mxPoint x="729.3088607594937" y="1079" as="sourcePoint" />
            <mxPoint x="877.3599999999999" y="957.2" as="targetPoint" />
            <Array as="points">
              <mxPoint x="890" y="1020" />
            </Array>
          </mxGeometry>
        </mxCell>
        <mxCell id="GpAK6kvn8NzfmqvFaqoF-158" value="&lt;u&gt;Location Rules engine topics&lt;/u&gt;" style="verticalAlign=middle;align=center;overflow=fill;fontSize=12;fontFamily=Helvetica;html=1;rounded=1;fontStyle=1;strokeWidth=3;" parent="1" vertex="1">
          <mxGeometry x="985" y="1050" width="180" height="50" as="geometry" />
        </mxCell>
        <mxCell id="GpAK6kvn8NzfmqvFaqoF-165" value="" style="curved=1;endArrow=classic;html=1;rounded=0;exitX=0.5;exitY=1;exitDx=0;exitDy=0;entryX=0;entryY=0.5;entryDx=0;entryDy=0;entryPerimeter=0;" parent="1" target="6HwekPEUJJvmb9f2ZytO-41" edge="1">
          <mxGeometry width="50" height="50" relative="1" as="geometry">
            <mxPoint x="919" y="1020" as="sourcePoint" />
            <mxPoint x="989.25" y="1085" as="targetPoint" />
            <Array as="points">
              <mxPoint x="979" y="1085" />
            </Array>
          </mxGeometry>
        </mxCell>
        <mxCell id="GpAK6kvn8NzfmqvFaqoF-173" value="&lt;p style=&quot;margin: 4px 0px 0px; text-align: center;&quot;&gt;&lt;u&gt;M3 : Location CDC&lt;/u&gt;&lt;/p&gt;&lt;p style=&quot;margin: 4px 0px 0px; text-align: center;&quot;&gt;&lt;u&gt;&lt;br&gt;&lt;/u&gt;&lt;/p&gt;&lt;p style=&quot;margin: 4px 0px 0px; text-align: center;&quot;&gt;&lt;u&gt;&lt;br&gt;&lt;/u&gt;&lt;/p&gt;&lt;p style=&quot;margin: 4px 0px 0px; text-align: center;&quot;&gt;&lt;u&gt;&lt;br&gt;&lt;/u&gt;&lt;/p&gt;&lt;p style=&quot;margin: 4px 0px 0px; text-align: center;&quot;&gt;&lt;u&gt;&lt;br&gt;&lt;/u&gt;&lt;/p&gt;&lt;p style=&quot;margin: 4px 0px 0px; text-align: center;&quot;&gt;&lt;span style=&quot;font-weight: normal;&quot;&gt;&lt;font style=&quot;font-size: 10px;&quot;&gt;-&amp;nbsp;Dedup by querying location subset&lt;/font&gt;&lt;/span&gt;&lt;/p&gt;" style="verticalAlign=middle;align=center;overflow=fill;fontSize=12;fontFamily=Helvetica;html=1;rounded=1;fontStyle=1;strokeWidth=3;fillColor=#dae8fc;strokeColor=#6c8ebf;" parent="1" vertex="1">
          <mxGeometry x="1180" y="850" width="160" height="170" as="geometry" />
        </mxCell>
        <mxCell id="GpAK6kvn8NzfmqvFaqoF-174" value="data-market-place-&lt;span style=&quot;background-color: rgb(255, 255, 255);&quot;&gt;location-&lt;/span&gt;&lt;br&gt;cdc" style="shape=hexagon;perimeter=hexagonPerimeter2;whiteSpace=wrap;html=1;fixedSize=1;fontSize=12;" parent="1" vertex="1">
          <mxGeometry x="1192.5" y="875" width="130" height="55" as="geometry" />
        </mxCell>
        <mxCell id="GpAK6kvn8NzfmqvFaqoF-176" value="" style="curved=1;endArrow=classic;html=1;rounded=0;entryX=-0.009;entryY=0.675;entryDx=0;entryDy=0;entryPerimeter=0;exitX=1;exitY=0.25;exitDx=0;exitDy=0;" parent="1" target="GpAK6kvn8NzfmqvFaqoF-173" edge="1">
          <mxGeometry width="50" height="50" relative="1" as="geometry">
            <mxPoint x="1091" y="1079" as="sourcePoint" />
            <mxPoint x="1316.3599999999997" y="957.1999999999998" as="targetPoint" />
            <Array as="points">
              <mxPoint x="1160" y="1010" />
            </Array>
          </mxGeometry>
        </mxCell>
        <mxCell id="GpAK6kvn8NzfmqvFaqoF-177" value="&lt;u&gt;Location CDC topic&lt;/u&gt;" style="verticalAlign=middle;align=center;overflow=fill;fontSize=12;fontFamily=Helvetica;html=1;rounded=1;fontStyle=1;strokeWidth=3;" parent="1" vertex="1">
          <mxGeometry x="1345" y="1050" width="180" height="50" as="geometry" />
        </mxCell>
        <mxCell id="GpAK6kvn8NzfmqvFaqoF-184" value="" style="curved=1;endArrow=classic;html=1;rounded=0;exitX=0.5;exitY=1;exitDx=0;exitDy=0;" parent="1" target="6HwekPEUJJvmb9f2ZytO-43" edge="1">
          <mxGeometry width="50" height="50" relative="1" as="geometry">
            <mxPoint x="1250" y="1020" as="sourcePoint" />
            <mxPoint x="1349.25" y="1085" as="targetPoint" />
            <Array as="points">
              <mxPoint x="1310" y="1085" />
            </Array>
          </mxGeometry>
        </mxCell>
        <mxCell id="GpAK6kvn8NzfmqvFaqoF-189" value="Storage / Persistence - Location" style="rounded=0;whiteSpace=wrap;html=1;fontSize=17;verticalAlign=top;fontStyle=1;dashed=1;" parent="1" vertex="1">
          <mxGeometry x="413" y="1170" width="1127" height="420" as="geometry" />
        </mxCell>
        <mxCell id="GpAK6kvn8NzfmqvFaqoF-190" value="&lt;p style=&quot;margin: 4px 0px 0px; text-align: center;&quot;&gt;&lt;u&gt;M4: Location Event processor&lt;/u&gt;&lt;/p&gt;&lt;p style=&quot;margin: 4px 0px 0px; text-align: center;&quot;&gt;&lt;u&gt;&lt;br&gt;&lt;/u&gt;&lt;/p&gt;&lt;p style=&quot;margin: 4px 0px 0px; text-align: center;&quot;&gt;&lt;u&gt;&lt;br&gt;&lt;/u&gt;&lt;/p&gt;&lt;p style=&quot;margin: 4px 0px 0px; text-align: center;&quot;&gt;&lt;u&gt;&lt;br&gt;&lt;/u&gt;&lt;/p&gt;&lt;p style=&quot;margin: 4px 0px 0px; text-align: center;&quot;&gt;&lt;u&gt;&lt;br&gt;&lt;/u&gt;&lt;/p&gt;&lt;p style=&quot;margin: 4px 0px 0px; text-align: center;&quot;&gt;&lt;span style=&quot;font-weight: normal;&quot;&gt;&lt;font style=&quot;font-size: 10px;&quot;&gt;-&amp;nbsp;Data striping / transposing&lt;/font&gt;&lt;/span&gt;&lt;/p&gt;&lt;p style=&quot;margin: 4px 0px 0px; text-align: center;&quot;&gt;&lt;span style=&quot;font-weight: normal;&quot;&gt;&lt;font style=&quot;font-size: 10px;&quot;&gt;- Maintains referential integrity&lt;/font&gt;&lt;/span&gt;&lt;/p&gt;" style="verticalAlign=middle;align=center;overflow=fill;fontSize=12;fontFamily=Helvetica;html=1;rounded=1;fontStyle=1;strokeWidth=3;fillColor=#dae8fc;strokeColor=#6c8ebf;" parent="1" vertex="1">
          <mxGeometry x="437.5" y="1250" width="162.5" height="170" as="geometry" />
        </mxCell>
        <mxCell id="GpAK6kvn8NzfmqvFaqoF-191" value="data-market-place-&lt;span style=&quot;background-color: rgb(255, 255, 255);&quot;&gt;location-&lt;/span&gt;&lt;br&gt;event-processsor" style="shape=hexagon;perimeter=hexagonPerimeter2;whiteSpace=wrap;html=1;fixedSize=1;fontSize=12;" parent="1" vertex="1">
          <mxGeometry x="450" y="1275" width="130" height="55" as="geometry" />
        </mxCell>
        <mxCell id="GpAK6kvn8NzfmqvFaqoF-192" value="" style="curved=1;endArrow=classic;html=1;rounded=0;exitX=0.5;exitY=1;exitDx=0;exitDy=0;entryX=0;entryY=0.5;entryDx=0;entryDy=0;" parent="1" target="GpAK6kvn8NzfmqvFaqoF-190" edge="1">
          <mxGeometry width="50" height="50" relative="1" as="geometry">
            <mxPoint x="1436" y="1094" as="sourcePoint" />
            <mxPoint x="1359.25" y="1095" as="targetPoint" />
            <Array as="points">
              <mxPoint x="1320" y="1095" />
              <mxPoint x="860" y="1160" />
              <mxPoint x="360" y="1200" />
            </Array>
          </mxGeometry>
        </mxCell>
        <mxCell id="GpAK6kvn8NzfmqvFaqoF-193" value="&lt;u&gt;Location Event processor topic&lt;/u&gt;" style="verticalAlign=middle;align=center;overflow=fill;fontSize=12;fontFamily=Helvetica;html=1;rounded=1;fontStyle=1;strokeWidth=3;" parent="1" vertex="1">
          <mxGeometry x="516.38" y="1450" width="180" height="60" as="geometry" />
        </mxCell>
        <mxCell id="GpAK6kvn8NzfmqvFaqoF-196" value="" style="curved=1;endArrow=classic;html=1;rounded=0;exitX=0.5;exitY=1;exitDx=0;exitDy=0;" parent="1" target="6HwekPEUJJvmb9f2ZytO-45" edge="1">
          <mxGeometry width="50" height="50" relative="1" as="geometry">
            <mxPoint x="511" y="1420" as="sourcePoint" />
            <mxPoint x="610.25" y="1485" as="targetPoint" />
            <Array as="points">
              <mxPoint x="571" y="1485" />
            </Array>
          </mxGeometry>
        </mxCell>
        <mxCell id="GpAK6kvn8NzfmqvFaqoF-199" value="&lt;u&gt;Location&lt;/u&gt;&lt;u&gt;&amp;nbsp;Current topic&lt;/u&gt;" style="verticalAlign=middle;align=center;overflow=fill;fontSize=12;fontFamily=Helvetica;html=1;rounded=1;fontStyle=1;strokeWidth=3;" parent="1" vertex="1">
          <mxGeometry x="867.5" y="1240" width="180" height="60" as="geometry" />
        </mxCell>
        <mxCell id="GpAK6kvn8NzfmqvFaqoF-204" value="&lt;u&gt;Location&lt;/u&gt;&lt;u&gt;&amp;nbsp;History topic&lt;/u&gt;" style="verticalAlign=middle;align=center;overflow=fill;fontSize=12;fontFamily=Helvetica;html=1;rounded=1;fontStyle=1;strokeWidth=3;" parent="1" vertex="1">
          <mxGeometry x="880" y="1450" width="167.5" height="60" as="geometry" />
        </mxCell>
        <mxCell id="GpAK6kvn8NzfmqvFaqoF-209" value="&lt;p style=&quot;margin: 0px; margin-top: 4px; text-align: center; text-decoration: underline;&quot;&gt;&lt;/p&gt;&lt;p style=&quot;margin: 0px; margin-left: 8px;&quot;&gt;&lt;u&gt;Kafka connect&lt;/u&gt;&lt;/p&gt;&lt;p style=&quot;margin: 0px; margin-left: 8px;&quot;&gt;&lt;br&gt;&lt;/p&gt;&lt;p style=&quot;margin: 0px; margin-left: 8px;&quot;&gt;Current Kafka&amp;nbsp;&lt;/p&gt;&lt;p style=&quot;margin: 0px; margin-left: 8px;&quot;&gt;connector&lt;/p&gt;" style="verticalAlign=middle;align=center;overflow=fill;fontSize=12;fontFamily=Helvetica;html=1;rounded=1;fontStyle=1;strokeWidth=3;fillColor=#E6FFCC" parent="1" vertex="1">
          <mxGeometry x="1129" y="1230" width="110" height="90" as="geometry" />
        </mxCell>
        <mxCell id="GpAK6kvn8NzfmqvFaqoF-211" value="Location History store" style="shape=cylinder3;whiteSpace=wrap;html=1;boundedLbl=1;backgroundOutline=1;size=15;fontSize=17;" parent="1" vertex="1">
          <mxGeometry x="1370" y="1415" width="90" height="80" as="geometry" />
        </mxCell>
        <mxCell id="GpAK6kvn8NzfmqvFaqoF-212" value="Location Current store" style="shape=cylinder3;whiteSpace=wrap;html=1;boundedLbl=1;backgroundOutline=1;size=15;fontSize=17;" parent="1" vertex="1">
          <mxGeometry x="1361" y="1230" width="99" height="80" as="geometry" />
        </mxCell>
        <mxCell id="GpAK6kvn8NzfmqvFaqoF-213" value="" style="curved=1;endArrow=classic;html=1;rounded=0;exitX=1;exitY=0.5;exitDx=0;exitDy=0;entryX=0;entryY=0.5;entryDx=0;entryDy=0;" parent="1" source="GpAK6kvn8NzfmqvFaqoF-199" target="GpAK6kvn8NzfmqvFaqoF-209" edge="1">
          <mxGeometry width="50" height="50" relative="1" as="geometry">
            <mxPoint x="284.8571428571429" y="900" as="sourcePoint" />
            <mxPoint x="250" y="1020" as="targetPoint" />
            <Array as="points">
              <mxPoint x="1090" y="1285" />
            </Array>
          </mxGeometry>
        </mxCell>
        <mxCell id="GpAK6kvn8NzfmqvFaqoF-217" value="" style="curved=1;endArrow=classic;html=1;rounded=0;exitX=1;exitY=0.5;exitDx=0;exitDy=0;entryX=0;entryY=0.5;entryDx=0;entryDy=0;entryPerimeter=0;" parent="1" source="GpAK6kvn8NzfmqvFaqoF-209" target="GpAK6kvn8NzfmqvFaqoF-212" edge="1">
          <mxGeometry width="50" height="50" relative="1" as="geometry">
            <mxPoint x="284.8571428571429" y="900" as="sourcePoint" />
            <mxPoint x="250" y="1020" as="targetPoint" />
            <Array as="points">
              <mxPoint x="1320" y="1290" />
            </Array>
          </mxGeometry>
        </mxCell>
        <mxCell id="GpAK6kvn8NzfmqvFaqoF-218" value="&lt;p style=&quot;margin: 4px 0px 0px; text-align: center;&quot;&gt;&lt;u&gt;M5: Location History service&lt;/u&gt;&lt;/p&gt;&lt;p style=&quot;margin: 4px 0px 0px; text-align: center;&quot;&gt;&lt;u&gt;&lt;br&gt;&lt;/u&gt;&lt;/p&gt;&lt;p style=&quot;margin: 4px 0px 0px; text-align: center;&quot;&gt;&lt;u&gt;&lt;br&gt;&lt;/u&gt;&lt;/p&gt;&lt;p style=&quot;margin: 4px 0px 0px; text-align: center;&quot;&gt;&lt;u&gt;&lt;br&gt;&lt;/u&gt;&lt;/p&gt;&lt;p style=&quot;margin: 4px 0px 0px; text-align: center;&quot;&gt;&lt;u&gt;&lt;br&gt;&lt;/u&gt;&lt;/p&gt;&lt;p style=&quot;margin: 4px 0px 0px; text-align: center;&quot;&gt;&lt;font&gt;&lt;font size=&quot;1&quot;&gt;&lt;span style=&quot;font-weight: normal;&quot;&gt;-&amp;nbsp;&lt;/span&gt;&lt;span style=&quot;font-weight: 400;&quot;&gt;change data capture (history ID)&lt;/span&gt;&lt;/font&gt;&lt;br&gt;&lt;/font&gt;&lt;/p&gt;" style="verticalAlign=middle;align=center;overflow=fill;fontSize=12;fontFamily=Helvetica;html=1;rounded=1;fontStyle=1;strokeWidth=3;fillColor=#dae8fc;strokeColor=#6c8ebf;" parent="1" vertex="1">
          <mxGeometry x="1120" y="1380" width="170" height="170" as="geometry" />
        </mxCell>
        <mxCell id="GpAK6kvn8NzfmqvFaqoF-219" value="data-market-place-&lt;span style=&quot;background-color: rgb(255, 255, 255);&quot;&gt;location-&lt;/span&gt;&lt;br&gt;history" style="shape=hexagon;perimeter=hexagonPerimeter2;whiteSpace=wrap;html=1;fixedSize=1;fontSize=12;" parent="1" vertex="1">
          <mxGeometry x="1141.5" y="1405" width="130" height="55" as="geometry" />
        </mxCell>
        <mxCell id="GpAK6kvn8NzfmqvFaqoF-220" value="" style="curved=1;endArrow=classic;html=1;rounded=0;exitX=1;exitY=0.5;exitDx=0;exitDy=0;entryX=0;entryY=0.5;entryDx=0;entryDy=0;" parent="1" source="GpAK6kvn8NzfmqvFaqoF-204" target="GpAK6kvn8NzfmqvFaqoF-218" edge="1">
          <mxGeometry width="50" height="50" relative="1" as="geometry">
            <mxPoint x="1057.5" y="1295" as="sourcePoint" />
            <mxPoint x="1139" y="1285" as="targetPoint" />
            <Array as="points">
              <mxPoint x="1080" y="1490" />
            </Array>
          </mxGeometry>
        </mxCell>
        <mxCell id="GpAK6kvn8NzfmqvFaqoF-221" value="" style="curved=1;endArrow=classic;html=1;rounded=0;exitX=0.994;exitY=0.571;exitDx=0;exitDy=0;entryX=0;entryY=0;entryDx=0;entryDy=52.5;entryPerimeter=0;exitPerimeter=0;" parent="1" source="GpAK6kvn8NzfmqvFaqoF-218" target="GpAK6kvn8NzfmqvFaqoF-211" edge="1">
          <mxGeometry width="50" height="50" relative="1" as="geometry">
            <mxPoint x="1249" y="1285" as="sourcePoint" />
            <mxPoint x="1371" y="1280" as="targetPoint" />
            <Array as="points">
              <mxPoint x="1320" y="1490" />
            </Array>
          </mxGeometry>
        </mxCell>
        <mxCell id="GpAK6kvn8NzfmqvFaqoF-222" value="RU" style="whiteSpace=wrap;align=center;verticalAlign=middle;fontStyle=1;strokeWidth=3;fillColor=#FFFFCC" parent="1" vertex="1">
          <mxGeometry x="-70" y="1005" width="90" height="60" as="geometry" />
        </mxCell>
        <mxCell id="GpAK6kvn8NzfmqvFaqoF-223" value="&lt;p style=&quot;margin: 0px; margin-top: 4px; text-align: center; text-decoration: underline;&quot;&gt;&lt;strong&gt;Source ingestion&lt;br&gt;&lt;/strong&gt;&lt;/p&gt;&lt;hr&gt;&lt;p style=&quot;margin: 0px; margin-left: 8px;&quot;&gt;GLM Kafka&amp;nbsp;&lt;/p&gt;&lt;p style=&quot;margin: 0px; margin-left: 8px;&quot;&gt;connector&lt;/p&gt;" style="verticalAlign=middle;align=center;overflow=fill;fontSize=12;fontFamily=Helvetica;html=1;rounded=1;fontStyle=1;strokeWidth=3;fillColor=#E6FFCC" parent="1" vertex="1">
          <mxGeometry x="40" y="935" width="110" height="65" as="geometry" />
        </mxCell>
        <mxCell id="6HwekPEUJJvmb9f2ZytO-37" value="Mesh" style="whiteSpace=wrap;align=center;verticalAlign=middle;fontStyle=1;strokeWidth=3;fillColor=#FFFFCC" parent="1" vertex="1">
          <mxGeometry x="-70" y="1072" width="90" height="60" as="geometry" />
        </mxCell>
        <mxCell id="6HwekPEUJJvmb9f2ZytO-38" value="NDS" style="whiteSpace=wrap;align=center;verticalAlign=middle;fontStyle=1;strokeWidth=3;fillColor=#FFFFCC" parent="1" vertex="1">
          <mxGeometry x="-70" y="867" width="90" height="60" as="geometry" />
        </mxCell>
        <mxCell id="6HwekPEUJJvmb9f2ZytO-41" value="" style="outlineConnect=0;dashed=0;verticalLabelPosition=bottom;verticalAlign=top;align=center;html=1;shape=mxgraph.aws3.queue;fillColor=#D9A741;gradientColor=none;" parent="1" vertex="1">
          <mxGeometry x="1016.63" y="1080" width="55.75" height="10" as="geometry" />
        </mxCell>
        <mxCell id="6HwekPEUJJvmb9f2ZytO-42" value="Partition0" style="text;spacingTop=-5;align=center" parent="1" vertex="1">
          <mxGeometry x="1103.38" y="1075" width="30" height="20" as="geometry" />
        </mxCell>
        <mxCell id="6HwekPEUJJvmb9f2ZytO-43" value="" style="outlineConnect=0;dashed=0;verticalLabelPosition=bottom;verticalAlign=top;align=center;html=1;shape=mxgraph.aws3.queue;fillColor=#D9A741;gradientColor=none;" parent="1" vertex="1">
          <mxGeometry x="1376.6200000000001" y="1080" width="55.75" height="10" as="geometry" />
        </mxCell>
        <mxCell id="6HwekPEUJJvmb9f2ZytO-44" value="Partition0" style="text;spacingTop=-5;align=center" parent="1" vertex="1">
          <mxGeometry x="1463.3700000000001" y="1075" width="30" height="20" as="geometry" />
        </mxCell>
        <mxCell id="6HwekPEUJJvmb9f2ZytO-45" value="" style="outlineConnect=0;dashed=0;verticalLabelPosition=bottom;verticalAlign=top;align=center;html=1;shape=mxgraph.aws3.queue;fillColor=#D9A741;gradientColor=none;" parent="1" vertex="1">
          <mxGeometry x="540.3800000000001" y="1475" width="55.75" height="10" as="geometry" />
        </mxCell>
        <mxCell id="6HwekPEUJJvmb9f2ZytO-46" value="Partition0" style="text;spacingTop=-5;align=center" parent="1" vertex="1">
          <mxGeometry x="627.1300000000001" y="1470" width="30" height="20" as="geometry" />
        </mxCell>
        <mxCell id="6HwekPEUJJvmb9f2ZytO-47" value="" style="outlineConnect=0;dashed=0;verticalLabelPosition=bottom;verticalAlign=top;align=center;html=1;shape=mxgraph.aws3.queue;fillColor=#D9A741;gradientColor=none;" parent="1" vertex="1">
          <mxGeometry x="899.1300000000001" y="1480" width="55.75" height="10" as="geometry" />
        </mxCell>
        <mxCell id="6HwekPEUJJvmb9f2ZytO-48" value="Partition0" style="text;spacingTop=-5;align=center" parent="1" vertex="1">
          <mxGeometry x="985.8800000000001" y="1475" width="30" height="20" as="geometry" />
        </mxCell>
        <mxCell id="6HwekPEUJJvmb9f2ZytO-49" value="" style="outlineConnect=0;dashed=0;verticalLabelPosition=bottom;verticalAlign=top;align=center;html=1;shape=mxgraph.aws3.queue;fillColor=#D9A741;gradientColor=none;" parent="1" vertex="1">
          <mxGeometry x="890.0000000000001" y="1270" width="55.75" height="10" as="geometry" />
        </mxCell>
        <mxCell id="6HwekPEUJJvmb9f2ZytO-50" value="Partition0" style="text;spacingTop=-5;align=center" parent="1" vertex="1">
          <mxGeometry x="976.7500000000001" y="1265" width="30" height="20" as="geometry" />
        </mxCell>
        <mxCell id="6HwekPEUJJvmb9f2ZytO-51" value="" style="curved=1;endArrow=classic;html=1;rounded=0;entryX=0.007;entryY=0.578;entryDx=0;entryDy=0;entryPerimeter=0;" parent="1" target="6HwekPEUJJvmb9f2ZytO-52" edge="1">
          <mxGeometry width="50" height="50" relative="1" as="geometry">
            <mxPoint x="590" y="1480" as="sourcePoint" />
            <mxPoint x="640" y="1491.6043165467627" as="targetPoint" />
            <Array as="points">
              <mxPoint x="581" y="1495" />
            </Array>
          </mxGeometry>
        </mxCell>
        <mxCell id="6HwekPEUJJvmb9f2ZytO-52" value="&lt;p style=&quot;margin: 0px; margin-top: 4px; text-align: center; text-decoration: underline;&quot;&gt;&lt;/p&gt;&lt;p style=&quot;margin: 0px; margin-left: 8px;&quot;&gt;&lt;u&gt;Kafka connect&lt;/u&gt;&lt;/p&gt;&lt;p style=&quot;margin: 0px; margin-left: 8px;&quot;&gt;&lt;br&gt;&lt;/p&gt;&lt;p style=&quot;margin: 0px; margin-left: 8px;&quot;&gt;Current Kafka&amp;nbsp;&lt;/p&gt;&lt;p style=&quot;margin: 0px; margin-left: 8px;&quot;&gt;connector&lt;/p&gt;" style="verticalAlign=middle;align=center;overflow=fill;fontSize=12;fontFamily=Helvetica;html=1;rounded=1;fontStyle=1;strokeWidth=3;fillColor=#E6FFCC" parent="1" vertex="1">
          <mxGeometry x="734.25" y="1290" width="110" height="90" as="geometry" />
        </mxCell>
        <mxCell id="6HwekPEUJJvmb9f2ZytO-53" value="&lt;p style=&quot;margin: 0px; margin-top: 4px; text-align: center; text-decoration: underline;&quot;&gt;&lt;/p&gt;&lt;p style=&quot;margin: 0px; margin-left: 8px;&quot;&gt;&lt;u&gt;Kafka connect&lt;/u&gt;&lt;/p&gt;&lt;p style=&quot;margin: 0px; margin-left: 8px;&quot;&gt;&lt;br&gt;&lt;/p&gt;&lt;p style=&quot;margin: 0px; margin-left: 8px;&quot;&gt;Current Kafka&amp;nbsp;&lt;/p&gt;&lt;p style=&quot;margin: 0px; margin-left: 8px;&quot;&gt;connector&lt;/p&gt;" style="verticalAlign=middle;align=center;overflow=fill;fontSize=12;fontFamily=Helvetica;html=1;rounded=1;fontStyle=1;strokeWidth=3;fillColor=#E6FFCC" parent="1" vertex="1">
          <mxGeometry x="734.25" y="1435" width="110" height="90" as="geometry" />
        </mxCell>
        <mxCell id="6HwekPEUJJvmb9f2ZytO-54" value="" style="curved=1;endArrow=classic;html=1;rounded=0;" parent="1" target="6HwekPEUJJvmb9f2ZytO-53" edge="1">
          <mxGeometry width="50" height="50" relative="1" as="geometry">
            <mxPoint x="590" y="1480" as="sourcePoint" />
            <mxPoint x="745.02" y="1352.02" as="targetPoint" />
            <Array as="points">
              <mxPoint x="591" y="1505" />
            </Array>
          </mxGeometry>
        </mxCell>
        <mxCell id="6HwekPEUJJvmb9f2ZytO-55" value="" style="curved=1;endArrow=classic;html=1;rounded=0;entryX=0;entryY=0.5;entryDx=0;entryDy=0;" parent="1" source="6HwekPEUJJvmb9f2ZytO-52" target="GpAK6kvn8NzfmqvFaqoF-199" edge="1">
          <mxGeometry width="50" height="50" relative="1" as="geometry">
            <mxPoint x="840" y="1320" as="sourcePoint" />
            <mxPoint x="745.02" y="1352.02" as="targetPoint" />
            <Array as="points">
              <mxPoint x="850" y="1300" />
            </Array>
          </mxGeometry>
        </mxCell>
        <mxCell id="6HwekPEUJJvmb9f2ZytO-56" value="" style="curved=1;endArrow=classic;html=1;rounded=0;entryX=0;entryY=0.5;entryDx=0;entryDy=0;exitX=0.993;exitY=0.67;exitDx=0;exitDy=0;exitPerimeter=0;" parent="1" source="6HwekPEUJJvmb9f2ZytO-53" target="GpAK6kvn8NzfmqvFaqoF-204" edge="1">
          <mxGeometry width="50" height="50" relative="1" as="geometry">
            <mxPoint x="854.25" y="1313.312757201646" as="sourcePoint" />
            <mxPoint x="877.5" y="1280" as="targetPoint" />
            <Array as="points">
              <mxPoint x="860" y="1495" />
            </Array>
          </mxGeometry>
        </mxCell>
        <mxCell id="6HwekPEUJJvmb9f2ZytO-58" value="&lt;u&gt;GLM Exception topics&lt;/u&gt;" style="verticalAlign=middle;align=center;overflow=fill;fontSize=12;fontFamily=Helvetica;html=1;rounded=1;fontStyle=1;strokeWidth=3;fillColor=#f8cecc;strokeColor=#b85450;" parent="1" vertex="1">
          <mxGeometry x="156.25" y="1219" width="180" height="50" as="geometry" />
        </mxCell>
        <mxCell id="6HwekPEUJJvmb9f2ZytO-59" value="" style="outlineConnect=0;dashed=0;verticalLabelPosition=bottom;verticalAlign=top;align=center;html=1;shape=mxgraph.aws3.queue;fillColor=#D9A741;gradientColor=none;" parent="1" vertex="1">
          <mxGeometry x="160.5" y="1249" width="55.75" height="10" as="geometry" />
        </mxCell>
        <mxCell id="6HwekPEUJJvmb9f2ZytO-60" value="Partition0" style="text;spacingTop=-5;align=center" parent="1" vertex="1">
          <mxGeometry x="232.25" y="1243" width="30" height="20" as="geometry" />
        </mxCell>
        <mxCell id="6HwekPEUJJvmb9f2ZytO-61" value="&lt;u&gt;RU Exception topics&lt;/u&gt;" style="verticalAlign=middle;align=center;overflow=fill;fontSize=12;fontFamily=Helvetica;html=1;rounded=1;fontStyle=1;strokeWidth=3;fillColor=#f8cecc;strokeColor=#b85450;" parent="1" vertex="1">
          <mxGeometry x="-46.25" y="1294" width="180" height="50" as="geometry" />
        </mxCell>
        <mxCell id="6HwekPEUJJvmb9f2ZytO-62" value="" style="outlineConnect=0;dashed=0;verticalLabelPosition=bottom;verticalAlign=top;align=center;html=1;shape=mxgraph.aws3.queue;fillColor=#D9A741;gradientColor=none;" parent="1" vertex="1">
          <mxGeometry x="-42" y="1324" width="55.75" height="10" as="geometry" />
        </mxCell>
        <mxCell id="6HwekPEUJJvmb9f2ZytO-63" value="Partition0" style="text;spacingTop=-5;align=center" parent="1" vertex="1">
          <mxGeometry x="29.75" y="1318" width="30" height="20" as="geometry" />
        </mxCell>
        <mxCell id="6HwekPEUJJvmb9f2ZytO-64" value="&lt;u&gt;Mesh Exception topics&lt;/u&gt;" style="verticalAlign=middle;align=center;overflow=fill;fontSize=12;fontFamily=Helvetica;html=1;rounded=1;fontStyle=1;strokeWidth=3;fillColor=#f8cecc;strokeColor=#b85450;" parent="1" vertex="1">
          <mxGeometry x="156.25" y="1294" width="180" height="50" as="geometry" />
        </mxCell>
        <mxCell id="6HwekPEUJJvmb9f2ZytO-65" value="" style="outlineConnect=0;dashed=0;verticalLabelPosition=bottom;verticalAlign=top;align=center;html=1;shape=mxgraph.aws3.queue;fillColor=#D9A741;gradientColor=none;" parent="1" vertex="1">
          <mxGeometry x="160.5" y="1324" width="55.75" height="10" as="geometry" />
        </mxCell>
        <mxCell id="6HwekPEUJJvmb9f2ZytO-66" value="Partition0" style="text;spacingTop=-5;align=center" parent="1" vertex="1">
          <mxGeometry x="232.25" y="1318" width="30" height="20" as="geometry" />
        </mxCell>
        <mxCell id="6HwekPEUJJvmb9f2ZytO-67" value="&lt;p style=&quot;margin: 0px; margin-top: 4px; text-align: center; text-decoration: underline;&quot;&gt;&lt;strong&gt;Source ingestion&lt;br&gt;&lt;/strong&gt;&lt;/p&gt;&lt;hr&gt;&lt;p style=&quot;margin: 0px; margin-left: 8px;&quot;&gt;RU Kafka&amp;nbsp;&lt;br&gt;&lt;/p&gt;&lt;p style=&quot;margin: 0px 0px 0px 8px;&quot;&gt;connector&lt;/p&gt;" style="verticalAlign=middle;align=center;overflow=fill;fontSize=12;fontFamily=Helvetica;html=1;rounded=1;fontStyle=1;strokeWidth=3;fillColor=#E6FFCC" parent="1" vertex="1">
          <mxGeometry x="40" y="1005" width="110" height="60" as="geometry" />
        </mxCell>
        <mxCell id="6HwekPEUJJvmb9f2ZytO-68" value="&lt;p style=&quot;margin: 0px; margin-top: 4px; text-align: center; text-decoration: underline;&quot;&gt;&lt;strong&gt;Source ingestion&lt;br&gt;&lt;/strong&gt;&lt;/p&gt;&lt;hr&gt;&lt;p style=&quot;margin: 0px; margin-left: 8px;&quot;&gt;Mesh Kafka&amp;nbsp;&lt;br&gt;&lt;/p&gt;&lt;p style=&quot;margin: 0px 0px 0px 8px;&quot;&gt;connector&lt;/p&gt;" style="verticalAlign=middle;align=center;overflow=fill;fontSize=12;fontFamily=Helvetica;html=1;rounded=1;fontStyle=1;strokeWidth=3;fillColor=#E6FFCC" parent="1" vertex="1">
          <mxGeometry x="40" y="1070" width="110" height="60" as="geometry" />
        </mxCell>
        <mxCell id="6HwekPEUJJvmb9f2ZytO-69" value="" style="curved=1;endArrow=classic;html=1;rounded=0;exitX=0.5;exitY=1;exitDx=0;exitDy=0;entryX=0;entryY=0.5;entryDx=0;entryDy=0;" parent="1" target="GpAK6kvn8NzfmqvFaqoF-97" edge="1">
          <mxGeometry width="50" height="50" relative="1" as="geometry">
            <mxPoint x="150" y="980" as="sourcePoint" />
            <mxPoint x="265.6300000000001" y="1041.5747697870179" as="targetPoint" />
            <Array as="points">
              <mxPoint x="160" y="1000" />
            </Array>
          </mxGeometry>
        </mxCell>
        <mxCell id="6HwekPEUJJvmb9f2ZytO-72" value="&lt;u&gt;Location DLQ topic&lt;/u&gt;" style="verticalAlign=middle;align=center;overflow=fill;fontSize=12;fontFamily=Helvetica;html=1;rounded=1;fontStyle=1;strokeWidth=3;fillColor=#f8cecc;strokeColor=#b85450;" parent="1" vertex="1">
          <mxGeometry x="59.999999999999886" y="1369" width="180" height="50" as="geometry" />
        </mxCell>
        <mxCell id="6HwekPEUJJvmb9f2ZytO-73" value="" style="outlineConnect=0;dashed=0;verticalLabelPosition=bottom;verticalAlign=top;align=center;html=1;shape=mxgraph.aws3.queue;fillColor=#D9A741;gradientColor=none;" parent="1" vertex="1">
          <mxGeometry x="64.24999999999989" y="1399" width="55.75" height="10" as="geometry" />
        </mxCell>
        <mxCell id="6HwekPEUJJvmb9f2ZytO-74" value="Partition0" style="text;spacingTop=-5;align=center" parent="1" vertex="1">
          <mxGeometry x="135.9999999999999" y="1393" width="30" height="20" as="geometry" />
        </mxCell>
        <mxCell id="Ny2sJHAwF01NyMqJJar9-8" value="" style="verticalLabelPosition=bottom;verticalAlign=top;html=1;shape=mxgraph.basic.6_point_star;rotation=-90;fillColor=#CC0000;" parent="1" vertex="1">
          <mxGeometry x="681" y="1504" width="25" height="16" as="geometry" />
        </mxCell>
        <mxCell id="Ny2sJHAwF01NyMqJJar9-9" value="" style="verticalLabelPosition=bottom;verticalAlign=top;html=1;shape=mxgraph.basic.6_point_star;rotation=-90;fillColor=#CC0000;" parent="1" vertex="1">
          <mxGeometry x="826" y="1372" width="25" height="16" as="geometry" />
        </mxCell>
        <mxCell id="Ny2sJHAwF01NyMqJJar9-10" value="" style="verticalLabelPosition=bottom;verticalAlign=top;html=1;shape=mxgraph.basic.6_point_star;rotation=-90;fillColor=#CC0000;" parent="1" vertex="1">
          <mxGeometry x="826" y="1520" width="25" height="16" as="geometry" />
        </mxCell>
        <mxCell id="Ny2sJHAwF01NyMqJJar9-11" value="" style="verticalLabelPosition=bottom;verticalAlign=top;html=1;shape=mxgraph.basic.6_point_star;rotation=-90;fillColor=#CC0000;" parent="1" vertex="1">
          <mxGeometry x="1262.5" y="1534" width="25" height="16" as="geometry" />
        </mxCell>
        <mxCell id="Ny2sJHAwF01NyMqJJar9-37" value="&lt;p style=&quot;margin: 4px 0px 0px; text-align: center;&quot;&gt;&lt;u&gt;Service&lt;/u&gt;&lt;/p&gt;" style="verticalAlign=middle;align=center;overflow=fill;fontSize=12;fontFamily=Helvetica;html=1;rounded=1;fontStyle=1;strokeWidth=3;fillColor=#dae8fc;strokeColor=#6c8ebf;" parent="1" vertex="1">
          <mxGeometry x="65.12" y="1570" width="74" height="40" as="geometry" />
        </mxCell>
        <mxCell id="Ny2sJHAwF01NyMqJJar9-38" value="&lt;p style=&quot;margin: 0px; margin-top: 4px; text-align: center; text-decoration: underline;&quot;&gt;&lt;/p&gt;&lt;p style=&quot;margin: 0px; margin-left: 8px;&quot;&gt;&lt;u&gt;Kafka connector&lt;/u&gt;&lt;/p&gt;" style="verticalAlign=middle;align=center;overflow=fill;fontSize=12;fontFamily=Helvetica;html=1;rounded=1;fontStyle=1;strokeWidth=3;fillColor=#E6FFCC" parent="1" vertex="1">
          <mxGeometry x="65.13" y="1620" width="109.5" height="40" as="geometry" />
        </mxCell>
        <mxCell id="Ny2sJHAwF01NyMqJJar9-39" value="&lt;u&gt;Operations topics&lt;/u&gt;" style="verticalAlign=middle;align=center;overflow=fill;fontSize=12;fontFamily=Helvetica;html=1;rounded=1;fontStyle=1;strokeWidth=3;fillColor=#f8cecc;strokeColor=#b85450;" parent="1" vertex="1">
          <mxGeometry x="65" y="1710" width="155" height="30" as="geometry" />
        </mxCell>
        <mxCell id="Ny2sJHAwF01NyMqJJar9-40" value="&lt;u&gt;Pipeline&amp;nbsp;topics&lt;/u&gt;" style="verticalAlign=middle;align=center;overflow=fill;fontSize=12;fontFamily=Helvetica;html=1;rounded=1;fontStyle=1;strokeWidth=3;" parent="1" vertex="1">
          <mxGeometry x="65.12" y="1670" width="154.88" height="30" as="geometry" />
        </mxCell>
        <mxCell id="Ny2sJHAwF01NyMqJJar9-41" value="" style="verticalLabelPosition=bottom;verticalAlign=top;html=1;shape=mxgraph.basic.6_point_star;rotation=-90;fillColor=#CC0000;" parent="1" vertex="1">
          <mxGeometry x="65.13" y="1750" width="25" height="16" as="geometry" />
        </mxCell>
        <mxCell id="Ny2sJHAwF01NyMqJJar9-42" value="Design choice&amp;nbsp;" style="text;html=1;strokeColor=none;fillColor=none;align=center;verticalAlign=middle;whiteSpace=wrap;rounded=0;" parent="1" vertex="1">
          <mxGeometry x="85.68" y="1743" width="113.75" height="30" as="geometry" />
        </mxCell>
        <mxCell id="Ny2sJHAwF01NyMqJJar9-45" value="Legend" style="text;html=1;strokeColor=none;fillColor=none;align=center;verticalAlign=middle;whiteSpace=wrap;rounded=0;" parent="1" vertex="1">
          <mxGeometry x="-12.120000000000001" y="1506" width="113.75" height="30" as="geometry" />
        </mxCell>
        <mxCell id="HoW8b6kV2RmGSlS2X65z-4" value="Data sources" style="whiteSpace=wrap;align=center;verticalAlign=middle;fontStyle=1;strokeWidth=3;fillColor=#FFFFCC" parent="1" vertex="1">
          <mxGeometry x="66.25" y="1540" width="90" height="20" as="geometry" />
        </mxCell>
      </root>
    </mxGraphModel>
  </diagram>
  <diagram id="gxRY54ko3T3WczhGh7Y0" name="Option2-Optimized">
    <mxGraphModel dx="3032" dy="836" grid="1" gridSize="10" guides="1" tooltips="1" connect="1" arrows="1" fold="1" page="1" pageScale="1" pageWidth="850" pageHeight="1100" math="0" shadow="0">
      <root>
        <mxCell id="0" />
        <mxCell id="1" parent="0" />
        <mxCell id="-8Tr_37V5giMrNJfVFZ_-3" value="Data ingestion and Transformation - Source based" style="rounded=0;whiteSpace=wrap;html=1;fontSize=17;verticalAlign=top;fontStyle=1;dashed=1;" parent="1" vertex="1">
          <mxGeometry x="160" y="790" width="500" height="360" as="geometry" />
        </mxCell>
        <mxCell id="j1Fs5PiYSmfmpDfGVvOQ-13" value="&lt;p style=&quot;margin: 4px 0px 0px; text-align: center;&quot;&gt;&lt;strong style=&quot;text-decoration: underline;&quot;&gt;M9 : Comsof Source&amp;nbsp;&lt;/strong&gt;&lt;u&gt;transform&lt;/u&gt;&lt;/p&gt;&lt;p style=&quot;margin: 4px 0px 0px; text-align: center;&quot;&gt;&lt;u&gt;&lt;br&gt;&lt;/u&gt;&lt;/p&gt;&lt;p style=&quot;margin: 4px 0px 0px; text-align: center;&quot;&gt;&lt;u&gt;&lt;br&gt;&lt;/u&gt;&lt;/p&gt;&lt;p style=&quot;margin: 4px 0px 0px; text-align: center;&quot;&gt;&lt;u&gt;&lt;br&gt;&lt;/u&gt;&lt;/p&gt;&lt;p style=&quot;margin: 4px 0px 0px; text-align: center;&quot;&gt;&lt;u&gt;&lt;br&gt;&lt;/u&gt;&lt;/p&gt;&lt;p style=&quot;margin: 4px 0px 0px; text-align: center;&quot;&gt;- &lt;span style=&quot;font-weight: normal;&quot;&gt;&lt;font style=&quot;font-size: 11px;&quot;&gt;Cross topic data stitching&lt;/font&gt;&lt;/span&gt;&lt;/p&gt;&lt;p style=&quot;margin: 4px 0px 0px; text-align: center;&quot;&gt;&lt;span style=&quot;font-weight: normal;&quot;&gt;&lt;font style=&quot;font-size: 10px;&quot;&gt;- Cross source data stitching&lt;/font&gt;&lt;/span&gt;&lt;/p&gt;&lt;p style=&quot;margin: 4px 0px 0px; text-align: center;&quot;&gt;&lt;span style=&quot;font-weight: normal;&quot;&gt;&lt;font style=&quot;font-size: 10px;&quot;&gt;- Event validation&lt;/font&gt;&lt;/span&gt;&lt;/p&gt;&lt;p style=&quot;margin: 4px 0px 0px; text-align: center;&quot;&gt;&lt;span style=&quot;font-weight: normal;&quot;&gt;&lt;font style=&quot;font-size: 10px;&quot;&gt;- Transformations&lt;/font&gt;&lt;/span&gt;&lt;/p&gt;" style="verticalAlign=middle;align=center;overflow=fill;fontSize=12;fontFamily=Helvetica;html=1;rounded=1;fontStyle=1;strokeWidth=3;fillColor=#dae8fc;strokeColor=#6c8ebf;" vertex="1" parent="1">
          <mxGeometry x="440" y="839" width="200" height="170" as="geometry" />
        </mxCell>
        <mxCell id="j1Fs5PiYSmfmpDfGVvOQ-10" value="&lt;p style=&quot;margin: 4px 0px 0px; text-align: center;&quot;&gt;&lt;strong style=&quot;text-decoration: underline;&quot;&gt;M8 : Mesh Source&amp;nbsp;&lt;/strong&gt;&lt;u&gt;transformation&lt;/u&gt;&lt;/p&gt;&lt;p style=&quot;margin: 4px 0px 0px; text-align: center;&quot;&gt;&lt;u&gt;&lt;br&gt;&lt;/u&gt;&lt;/p&gt;&lt;p style=&quot;margin: 4px 0px 0px; text-align: center;&quot;&gt;&lt;u&gt;&lt;br&gt;&lt;/u&gt;&lt;/p&gt;&lt;p style=&quot;margin: 4px 0px 0px; text-align: center;&quot;&gt;&lt;u&gt;&lt;br&gt;&lt;/u&gt;&lt;/p&gt;&lt;p style=&quot;margin: 4px 0px 0px; text-align: center;&quot;&gt;&lt;u&gt;&lt;br&gt;&lt;/u&gt;&lt;/p&gt;&lt;p style=&quot;margin: 4px 0px 0px; text-align: center;&quot;&gt;- &lt;span style=&quot;font-weight: normal;&quot;&gt;&lt;font style=&quot;font-size: 11px;&quot;&gt;Cross topic data stitching&lt;/font&gt;&lt;/span&gt;&lt;/p&gt;&lt;p style=&quot;margin: 4px 0px 0px; text-align: center;&quot;&gt;&lt;span style=&quot;font-weight: normal;&quot;&gt;&lt;font style=&quot;font-size: 10px;&quot;&gt;- Cross source data stitching&lt;/font&gt;&lt;/span&gt;&lt;/p&gt;&lt;p style=&quot;margin: 4px 0px 0px; text-align: center;&quot;&gt;&lt;span style=&quot;font-weight: normal;&quot;&gt;&lt;font style=&quot;font-size: 10px;&quot;&gt;- Event validation&lt;/font&gt;&lt;/span&gt;&lt;/p&gt;&lt;p style=&quot;margin: 4px 0px 0px; text-align: center;&quot;&gt;&lt;span style=&quot;font-weight: normal;&quot;&gt;&lt;font style=&quot;font-size: 10px;&quot;&gt;- Transformations&lt;/font&gt;&lt;/span&gt;&lt;/p&gt;" style="verticalAlign=middle;align=center;overflow=fill;fontSize=12;fontFamily=Helvetica;html=1;rounded=1;fontStyle=1;strokeWidth=3;fillColor=#dae8fc;strokeColor=#6c8ebf;" vertex="1" parent="1">
          <mxGeometry x="434.25" y="856.5" width="200" height="170" as="geometry" />
        </mxCell>
        <mxCell id="B21y94GkO6KhpNopeqbn-33" value="Source system ingestion" style="rounded=0;whiteSpace=wrap;html=1;fontSize=17;verticalAlign=top;fontStyle=1;dashed=1;" parent="1" vertex="1">
          <mxGeometry x="-160" y="790" width="310" height="410" as="geometry" />
        </mxCell>
        <mxCell id="7GBbqw52VXPi2Agrig69-7" value="&lt;p style=&quot;margin: 4px 0px 0px; text-align: center;&quot;&gt;&lt;strong style=&quot;text-decoration: underline;&quot;&gt;M7 : Brain Source&amp;nbsp;&lt;/strong&gt;&lt;u&gt;transformation&lt;/u&gt;&lt;/p&gt;&lt;p style=&quot;margin: 4px 0px 0px; text-align: center;&quot;&gt;&lt;u&gt;&lt;br&gt;&lt;/u&gt;&lt;/p&gt;&lt;p style=&quot;margin: 4px 0px 0px; text-align: center;&quot;&gt;&lt;u&gt;&lt;br&gt;&lt;/u&gt;&lt;/p&gt;&lt;p style=&quot;margin: 4px 0px 0px; text-align: center;&quot;&gt;&lt;u&gt;&lt;br&gt;&lt;/u&gt;&lt;/p&gt;&lt;p style=&quot;margin: 4px 0px 0px; text-align: center;&quot;&gt;&lt;u&gt;&lt;br&gt;&lt;/u&gt;&lt;/p&gt;&lt;p style=&quot;margin: 4px 0px 0px; text-align: center;&quot;&gt;- &lt;span style=&quot;font-weight: normal;&quot;&gt;&lt;font style=&quot;font-size: 11px;&quot;&gt;Cross topic data stitching&lt;/font&gt;&lt;/span&gt;&lt;/p&gt;&lt;p style=&quot;margin: 4px 0px 0px; text-align: center;&quot;&gt;&lt;span style=&quot;font-weight: normal;&quot;&gt;&lt;font style=&quot;font-size: 10px;&quot;&gt;- Cross source data stitching&lt;/font&gt;&lt;/span&gt;&lt;/p&gt;&lt;p style=&quot;margin: 4px 0px 0px; text-align: center;&quot;&gt;&lt;span style=&quot;font-weight: normal;&quot;&gt;&lt;font style=&quot;font-size: 10px;&quot;&gt;- Event validation&lt;/font&gt;&lt;/span&gt;&lt;/p&gt;&lt;p style=&quot;margin: 4px 0px 0px; text-align: center;&quot;&gt;&lt;span style=&quot;font-weight: normal;&quot;&gt;&lt;font style=&quot;font-size: 10px;&quot;&gt;- Transformations&lt;/font&gt;&lt;/span&gt;&lt;/p&gt;" style="verticalAlign=middle;align=center;overflow=fill;fontSize=12;fontFamily=Helvetica;html=1;rounded=1;fontStyle=1;strokeWidth=3;fillColor=#dae8fc;strokeColor=#6c8ebf;" parent="1" vertex="1">
          <mxGeometry x="424.25" y="873.5" width="200" height="170" as="geometry" />
        </mxCell>
        <mxCell id="7GBbqw52VXPi2Agrig69-6" value="&lt;p style=&quot;margin: 4px 0px 0px; text-align: center;&quot;&gt;&lt;strong style=&quot;text-decoration: underline;&quot;&gt;M6 : NDS Source&amp;nbsp;&lt;/strong&gt;&lt;u&gt;transformation&lt;/u&gt;&lt;/p&gt;&lt;p style=&quot;margin: 4px 0px 0px; text-align: center;&quot;&gt;&lt;u&gt;&lt;br&gt;&lt;/u&gt;&lt;/p&gt;&lt;p style=&quot;margin: 4px 0px 0px; text-align: center;&quot;&gt;&lt;u&gt;&lt;br&gt;&lt;/u&gt;&lt;/p&gt;&lt;p style=&quot;margin: 4px 0px 0px; text-align: center;&quot;&gt;&lt;u&gt;&lt;br&gt;&lt;/u&gt;&lt;/p&gt;&lt;p style=&quot;margin: 4px 0px 0px; text-align: center;&quot;&gt;&lt;u&gt;&lt;br&gt;&lt;/u&gt;&lt;/p&gt;&lt;p style=&quot;margin: 4px 0px 0px; text-align: center;&quot;&gt;- &lt;span style=&quot;font-weight: normal;&quot;&gt;&lt;font style=&quot;font-size: 11px;&quot;&gt;Cross topic data stitching&lt;/font&gt;&lt;/span&gt;&lt;/p&gt;&lt;p style=&quot;margin: 4px 0px 0px; text-align: center;&quot;&gt;&lt;span style=&quot;font-weight: normal;&quot;&gt;&lt;font style=&quot;font-size: 10px;&quot;&gt;- Cross source data stitching&lt;/font&gt;&lt;/span&gt;&lt;/p&gt;&lt;p style=&quot;margin: 4px 0px 0px; text-align: center;&quot;&gt;&lt;span style=&quot;font-weight: normal;&quot;&gt;&lt;font style=&quot;font-size: 10px;&quot;&gt;- Event validation&lt;/font&gt;&lt;/span&gt;&lt;/p&gt;&lt;p style=&quot;margin: 4px 0px 0px; text-align: center;&quot;&gt;&lt;span style=&quot;font-weight: normal;&quot;&gt;&lt;font style=&quot;font-size: 10px;&quot;&gt;- Transformations&lt;/font&gt;&lt;/span&gt;&lt;/p&gt;" style="verticalAlign=middle;align=center;overflow=fill;fontSize=12;fontFamily=Helvetica;html=1;rounded=1;fontStyle=1;strokeWidth=3;fillColor=#dae8fc;strokeColor=#6c8ebf;" parent="1" vertex="1">
          <mxGeometry x="416" y="895.5" width="200" height="170" as="geometry" />
        </mxCell>
        <mxCell id="7GBbqw52VXPi2Agrig69-5" value="&lt;p style=&quot;margin: 4px 0px 0px; text-align: center;&quot;&gt;&lt;strong style=&quot;text-decoration: underline;&quot;&gt;M5 : GLM Source&amp;nbsp;&lt;/strong&gt;&lt;u&gt;transformation&lt;/u&gt;&lt;/p&gt;&lt;p style=&quot;margin: 4px 0px 0px; text-align: center;&quot;&gt;&lt;u&gt;&lt;br&gt;&lt;/u&gt;&lt;/p&gt;&lt;p style=&quot;margin: 4px 0px 0px; text-align: center;&quot;&gt;&lt;u&gt;&lt;br&gt;&lt;/u&gt;&lt;/p&gt;&lt;p style=&quot;margin: 4px 0px 0px; text-align: center;&quot;&gt;&lt;u&gt;&lt;br&gt;&lt;/u&gt;&lt;/p&gt;&lt;p style=&quot;margin: 4px 0px 0px; text-align: center;&quot;&gt;&lt;u&gt;&lt;br&gt;&lt;/u&gt;&lt;/p&gt;&lt;p style=&quot;margin: 4px 0px 0px; text-align: center;&quot;&gt;- &lt;span style=&quot;font-weight: normal;&quot;&gt;&lt;font style=&quot;font-size: 11px;&quot;&gt;Cross topic data stitching&lt;/font&gt;&lt;/span&gt;&lt;/p&gt;&lt;p style=&quot;margin: 4px 0px 0px; text-align: center;&quot;&gt;&lt;span style=&quot;font-weight: normal;&quot;&gt;&lt;font style=&quot;font-size: 10px;&quot;&gt;- Cross source data stitching&lt;/font&gt;&lt;/span&gt;&lt;/p&gt;&lt;p style=&quot;margin: 4px 0px 0px; text-align: center;&quot;&gt;&lt;span style=&quot;font-weight: normal;&quot;&gt;&lt;font style=&quot;font-size: 10px;&quot;&gt;- Event validation&lt;/font&gt;&lt;/span&gt;&lt;/p&gt;&lt;p style=&quot;margin: 4px 0px 0px; text-align: center;&quot;&gt;&lt;span style=&quot;font-weight: normal;&quot;&gt;&lt;font style=&quot;font-size: 10px;&quot;&gt;- Transformations&lt;/font&gt;&lt;/span&gt;&lt;/p&gt;" style="verticalAlign=middle;align=center;overflow=fill;fontSize=12;fontFamily=Helvetica;html=1;rounded=1;fontStyle=1;strokeWidth=3;fillColor=#dae8fc;strokeColor=#6c8ebf;" parent="1" vertex="1">
          <mxGeometry x="407.5" y="913.5" width="200" height="170" as="geometry" />
        </mxCell>
        <mxCell id="-8Tr_37V5giMrNJfVFZ_-1" value="" style="rounded=0;whiteSpace=wrap;html=1;fillColor=#FFFFFF;" parent="1" vertex="1">
          <mxGeometry x="-118.3" y="1282.5" width="240.88" height="245" as="geometry" />
        </mxCell>
        <mxCell id="-8Tr_37V5giMrNJfVFZ_-2" value="Operations / Utilities&amp;nbsp;" style="rounded=0;whiteSpace=wrap;html=1;fontSize=17;verticalAlign=top;fontStyle=1;dashed=1;" parent="1" vertex="1">
          <mxGeometry x="300" y="1161" width="360" height="240" as="geometry" />
        </mxCell>
        <mxCell id="-8Tr_37V5giMrNJfVFZ_-4" value="Validation, business rules and deduplication - Location" style="rounded=0;whiteSpace=wrap;html=1;fontSize=17;verticalAlign=top;fontStyle=1;dashed=1;" parent="1" vertex="1">
          <mxGeometry x="670" y="790" width="870" height="360" as="geometry" />
        </mxCell>
        <mxCell id="-8Tr_37V5giMrNJfVFZ_-6" value="NDS (planning and development)" style="whiteSpace=wrap;align=center;verticalAlign=middle;fontStyle=1;strokeWidth=3;fillColor=#FFFFCC" parent="1" vertex="1">
          <mxGeometry x="-146.25" y="914" width="90" height="46" as="geometry" />
        </mxCell>
        <mxCell id="-8Tr_37V5giMrNJfVFZ_-14" value="&lt;p style=&quot;margin: 4px 0px 0px; text-align: center;&quot;&gt;&lt;strong style=&quot;text-decoration: underline;&quot;&gt;M1 : RU Source&amp;nbsp;&lt;/strong&gt;&lt;u&gt;transformation&lt;/u&gt;&lt;/p&gt;&lt;p style=&quot;margin: 4px 0px 0px; text-align: center;&quot;&gt;&lt;u&gt;&lt;br&gt;&lt;/u&gt;&lt;/p&gt;&lt;p style=&quot;margin: 4px 0px 0px; text-align: center;&quot;&gt;&lt;u&gt;&lt;br&gt;&lt;/u&gt;&lt;/p&gt;&lt;p style=&quot;margin: 4px 0px 0px; text-align: center;&quot;&gt;&lt;u&gt;&lt;br&gt;&lt;/u&gt;&lt;/p&gt;&lt;p style=&quot;margin: 4px 0px 0px; text-align: center;&quot;&gt;&lt;br&gt;&lt;/p&gt;&lt;span style=&quot;font-size: 10px; font-weight: 400;&quot;&gt;- Deserialization&lt;/span&gt;&lt;p style=&quot;margin: 4px 0px 0px; text-align: center;&quot;&gt;&lt;span style=&quot;font-weight: normal;&quot;&gt;&lt;font style=&quot;font-size: 10px;&quot;&gt;- Event validation&lt;/font&gt;&lt;/span&gt;&lt;/p&gt;&lt;p style=&quot;margin: 4px 0px 0px; text-align: center;&quot;&gt;&lt;span style=&quot;font-weight: normal;&quot;&gt;&lt;font style=&quot;font-size: 10px;&quot;&gt;- Transformations&lt;/font&gt;&lt;/span&gt;&lt;/p&gt;" style="verticalAlign=middle;align=center;overflow=fill;fontSize=12;fontFamily=Helvetica;html=1;rounded=1;fontStyle=1;strokeWidth=3;fillColor=#dae8fc;strokeColor=#6c8ebf;" parent="1" vertex="1">
          <mxGeometry x="400" y="933.5" width="200" height="170" as="geometry" />
        </mxCell>
        <mxCell id="-8Tr_37V5giMrNJfVFZ_-15" value="&lt;span style=&quot;background-color: rgb(255, 255, 255);&quot;&gt;data-market&lt;/span&gt;&lt;span style=&quot;background-color: rgb(255, 255, 255);&quot;&gt;-&lt;/span&gt;&lt;span style=&quot;background-color: rgb(255, 255, 255);&quot;&gt;&lt;br&gt;place-ru-source&lt;br&gt;-transformer&lt;/span&gt;" style="shape=hexagon;perimeter=hexagonPerimeter2;whiteSpace=wrap;html=1;fixedSize=1;fontSize=12;" parent="1" vertex="1">
          <mxGeometry x="412.5" y="958.5" width="167.5" height="55" as="geometry" />
        </mxCell>
        <mxCell id="-8Tr_37V5giMrNJfVFZ_-18" value="&lt;u&gt;Location Source transformation&lt;br&gt;&amp;nbsp;topic&lt;/u&gt;" style="verticalAlign=middle;align=center;overflow=fill;fontSize=12;fontFamily=Helvetica;html=1;rounded=1;fontStyle=1;strokeWidth=3;" parent="1" vertex="1">
          <mxGeometry x="681" y="1050" width="189" height="50" as="geometry" />
        </mxCell>
        <mxCell id="-8Tr_37V5giMrNJfVFZ_-19" value="" style="outlineConnect=0;dashed=0;verticalLabelPosition=bottom;verticalAlign=top;align=center;html=1;shape=mxgraph.aws3.queue;fillColor=#D9A741;gradientColor=none;" parent="1" vertex="1">
          <mxGeometry x="731.63" y="1080" width="55.75" height="10" as="geometry" />
        </mxCell>
        <mxCell id="-8Tr_37V5giMrNJfVFZ_-20" value="Partition0" style="text;spacingTop=-5;align=center" parent="1" vertex="1">
          <mxGeometry x="818.38" y="1075" width="30" height="20" as="geometry" />
        </mxCell>
        <mxCell id="-8Tr_37V5giMrNJfVFZ_-21" value="" style="curved=1;endArrow=classic;html=1;rounded=0;" parent="1" source="-8Tr_37V5giMrNJfVFZ_-14" target="-8Tr_37V5giMrNJfVFZ_-19" edge="1">
          <mxGeometry width="50" height="50" relative="1" as="geometry">
            <mxPoint x="631" y="1020" as="sourcePoint" />
            <mxPoint x="341" y="1070" as="targetPoint" />
            <Array as="points">
              <mxPoint x="671" y="1085" />
            </Array>
          </mxGeometry>
        </mxCell>
        <mxCell id="-8Tr_37V5giMrNJfVFZ_-22" value="&lt;u&gt;Exception topic&lt;/u&gt;" style="verticalAlign=middle;align=center;overflow=fill;fontSize=12;fontFamily=Helvetica;html=1;rounded=1;fontStyle=1;strokeWidth=3;fillColor=#f8cecc;strokeColor=#b85450;" parent="1" vertex="1">
          <mxGeometry x="353.75" y="1211" width="180" height="50" as="geometry" />
        </mxCell>
        <mxCell id="-8Tr_37V5giMrNJfVFZ_-23" value="" style="outlineConnect=0;dashed=0;verticalLabelPosition=bottom;verticalAlign=top;align=center;html=1;shape=mxgraph.aws3.queue;fillColor=#D9A741;gradientColor=none;" parent="1" vertex="1">
          <mxGeometry x="358" y="1241" width="55.75" height="10" as="geometry" />
        </mxCell>
        <mxCell id="-8Tr_37V5giMrNJfVFZ_-24" value="Partition0" style="text;spacingTop=-5;align=center" parent="1" vertex="1">
          <mxGeometry x="429.75" y="1235" width="30" height="20" as="geometry" />
        </mxCell>
        <mxCell id="-8Tr_37V5giMrNJfVFZ_-25" value="&lt;p style=&quot;margin: 4px 0px 0px; text-align: center;&quot;&gt;&lt;u&gt;M2 : Location Rules engine&lt;/u&gt;&lt;/p&gt;&lt;p style=&quot;margin: 4px 0px 0px; text-align: center;&quot;&gt;&lt;u&gt;&lt;br&gt;&lt;/u&gt;&lt;/p&gt;&lt;p style=&quot;margin: 4px 0px 0px; text-align: center;&quot;&gt;&lt;u&gt;&lt;br&gt;&lt;/u&gt;&lt;/p&gt;&lt;p style=&quot;margin: 4px 0px 0px; text-align: center;&quot;&gt;&lt;u&gt;&lt;br&gt;&lt;/u&gt;&lt;/p&gt;&lt;p style=&quot;margin: 4px 0px 0px; text-align: center;&quot;&gt;&lt;br&gt;&lt;/p&gt;&lt;p style=&quot;margin: 4px 0px 0px; text-align: center;&quot;&gt;&lt;font style=&quot;font-size: 13px;&quot; size=&quot;1&quot;&gt;- &lt;/font&gt;&lt;span style=&quot;font-weight: normal;&quot;&gt;&lt;font style=&quot;font-size: 10px;&quot;&gt;Encryption&lt;/font&gt;&lt;/span&gt;&lt;/p&gt;&lt;p style=&quot;margin: 4px 0px 0px; text-align: center;&quot;&gt;&lt;span style=&quot;font-weight: normal;&quot;&gt;&lt;font style=&quot;font-size: 11px;&quot;&gt;- &lt;/font&gt;&lt;font style=&quot;font-size: 10px;&quot;&gt;Obfuscation&lt;/font&gt;&lt;/span&gt;&lt;/p&gt;&lt;p style=&quot;margin: 4px 0px 0px; text-align: center; font-size: 10px;&quot;&gt;&lt;font style=&quot;font-size: 10px;&quot;&gt;&lt;span style=&quot;font-weight: normal;&quot;&gt;&lt;font style=&quot;font-size: 10px;&quot;&gt;- Privacy&amp;nbsp;&lt;/font&gt;&lt;/span&gt;&lt;span style=&quot;font-weight: 400;&quot;&gt;filtering&lt;/span&gt;&lt;/font&gt;&lt;/p&gt;" style="verticalAlign=middle;align=center;overflow=fill;fontSize=12;fontFamily=Helvetica;html=1;rounded=1;fontStyle=1;strokeWidth=3;fillColor=#dae8fc;strokeColor=#6c8ebf;" parent="1" vertex="1">
          <mxGeometry x="896.5" y="850" width="160" height="170" as="geometry" />
        </mxCell>
        <mxCell id="-8Tr_37V5giMrNJfVFZ_-26" value="data-market-place-&lt;span style=&quot;background-color: rgb(255, 255, 255);&quot;&gt;location-&lt;/span&gt;&lt;br&gt;rules-engine" style="shape=hexagon;perimeter=hexagonPerimeter2;whiteSpace=wrap;html=1;fixedSize=1;fontSize=12;" parent="1" vertex="1">
          <mxGeometry x="911.5" y="875" width="130" height="55" as="geometry" />
        </mxCell>
        <mxCell id="-8Tr_37V5giMrNJfVFZ_-27" value="" style="curved=1;endArrow=classic;html=1;rounded=0;entryX=0.004;entryY=0.651;entryDx=0;entryDy=0;entryPerimeter=0;exitX=1;exitY=0.25;exitDx=0;exitDy=0;" parent="1" source="-8Tr_37V5giMrNJfVFZ_-20" target="-8Tr_37V5giMrNJfVFZ_-25" edge="1">
          <mxGeometry width="50" height="50" relative="1" as="geometry">
            <mxPoint x="729.3088607594937" y="1079" as="sourcePoint" />
            <mxPoint x="877.3599999999999" y="957.2" as="targetPoint" />
            <Array as="points">
              <mxPoint x="890" y="1020" />
            </Array>
          </mxGeometry>
        </mxCell>
        <mxCell id="-8Tr_37V5giMrNJfVFZ_-28" value="&lt;u&gt;Location Rules engine topics&lt;/u&gt;" style="verticalAlign=middle;align=center;overflow=fill;fontSize=12;fontFamily=Helvetica;html=1;rounded=1;fontStyle=1;strokeWidth=3;" parent="1" vertex="1">
          <mxGeometry x="985" y="1050" width="180" height="50" as="geometry" />
        </mxCell>
        <mxCell id="-8Tr_37V5giMrNJfVFZ_-29" value="" style="curved=1;endArrow=classic;html=1;rounded=0;exitX=0.5;exitY=1;exitDx=0;exitDy=0;entryX=0;entryY=0.5;entryDx=0;entryDy=0;entryPerimeter=0;" parent="1" target="-8Tr_37V5giMrNJfVFZ_-56" edge="1">
          <mxGeometry width="50" height="50" relative="1" as="geometry">
            <mxPoint x="919" y="1020" as="sourcePoint" />
            <mxPoint x="989.25" y="1085" as="targetPoint" />
            <Array as="points">
              <mxPoint x="979" y="1085" />
            </Array>
          </mxGeometry>
        </mxCell>
        <mxCell id="-8Tr_37V5giMrNJfVFZ_-30" value="&lt;p style=&quot;margin: 4px 0px 0px; text-align: center;&quot;&gt;&lt;u&gt;M3 : Location CDC&lt;/u&gt;&lt;/p&gt;&lt;p style=&quot;margin: 4px 0px 0px; text-align: center;&quot;&gt;&lt;u&gt;&lt;br&gt;&lt;/u&gt;&lt;/p&gt;&lt;p style=&quot;margin: 4px 0px 0px; text-align: center;&quot;&gt;&lt;u&gt;&lt;br&gt;&lt;/u&gt;&lt;/p&gt;&lt;p style=&quot;margin: 4px 0px 0px; text-align: center;&quot;&gt;&lt;u&gt;&lt;br&gt;&lt;/u&gt;&lt;/p&gt;&lt;p style=&quot;margin: 4px 0px 0px; text-align: center;&quot;&gt;&lt;u&gt;&lt;br&gt;&lt;/u&gt;&lt;/p&gt;&lt;p style=&quot;margin: 4px 0px 0px; text-align: center;&quot;&gt;&lt;span style=&quot;font-weight: normal;&quot;&gt;&lt;font style=&quot;font-size: 10px;&quot;&gt;-&amp;nbsp;Dedup by querying&amp;nbsp;&lt;/font&gt;&lt;/span&gt;&lt;/p&gt;&lt;p style=&quot;margin: 4px 0px 0px; text-align: center;&quot;&gt;&lt;span style=&quot;font-weight: normal;&quot;&gt;&lt;font style=&quot;font-size: 10px;&quot;&gt;l&lt;/font&gt;&lt;/span&gt;&lt;span style=&quot;font-size: 10px; font-weight: normal; background-color: initial;&quot;&gt;ocation subset&lt;/span&gt;&lt;/p&gt;&lt;p style=&quot;margin: 4px 0px 0px; text-align: center;&quot;&gt;&lt;span style=&quot;font-size: 10px; font-weight: normal; background-color: initial;&quot;&gt;-Survivorship&lt;/span&gt;&lt;/p&gt;" style="verticalAlign=middle;align=center;overflow=fill;fontSize=12;fontFamily=Helvetica;html=1;rounded=1;fontStyle=1;strokeWidth=3;fillColor=#dae8fc;strokeColor=#6c8ebf;" parent="1" vertex="1">
          <mxGeometry x="1180" y="850" width="160" height="170" as="geometry" />
        </mxCell>
        <mxCell id="-8Tr_37V5giMrNJfVFZ_-31" value="data-market-place-&lt;span style=&quot;background-color: rgb(255, 255, 255);&quot;&gt;location-&lt;/span&gt;&lt;br&gt;cdc" style="shape=hexagon;perimeter=hexagonPerimeter2;whiteSpace=wrap;html=1;fixedSize=1;fontSize=12;" parent="1" vertex="1">
          <mxGeometry x="1192.5" y="875" width="130" height="55" as="geometry" />
        </mxCell>
        <mxCell id="-8Tr_37V5giMrNJfVFZ_-32" value="" style="curved=1;endArrow=classic;html=1;rounded=0;entryX=-0.009;entryY=0.675;entryDx=0;entryDy=0;entryPerimeter=0;exitX=1;exitY=0.25;exitDx=0;exitDy=0;" parent="1" target="-8Tr_37V5giMrNJfVFZ_-30" edge="1">
          <mxGeometry width="50" height="50" relative="1" as="geometry">
            <mxPoint x="1091" y="1079" as="sourcePoint" />
            <mxPoint x="1316.3599999999997" y="957.1999999999998" as="targetPoint" />
            <Array as="points">
              <mxPoint x="1160" y="1010" />
            </Array>
          </mxGeometry>
        </mxCell>
        <mxCell id="-8Tr_37V5giMrNJfVFZ_-33" value="&lt;u&gt;Location CDC topic&lt;/u&gt;" style="verticalAlign=middle;align=center;overflow=fill;fontSize=12;fontFamily=Helvetica;html=1;rounded=1;fontStyle=1;strokeWidth=3;" parent="1" vertex="1">
          <mxGeometry x="1345" y="1050" width="180" height="50" as="geometry" />
        </mxCell>
        <mxCell id="-8Tr_37V5giMrNJfVFZ_-34" value="" style="curved=1;endArrow=classic;html=1;rounded=0;exitX=0.5;exitY=1;exitDx=0;exitDy=0;" parent="1" target="-8Tr_37V5giMrNJfVFZ_-58" edge="1">
          <mxGeometry width="50" height="50" relative="1" as="geometry">
            <mxPoint x="1250" y="1020" as="sourcePoint" />
            <mxPoint x="1349.25" y="1085" as="targetPoint" />
            <Array as="points">
              <mxPoint x="1310" y="1085" />
            </Array>
          </mxGeometry>
        </mxCell>
        <mxCell id="-8Tr_37V5giMrNJfVFZ_-35" value="Storage / Persistence - Location" style="rounded=0;whiteSpace=wrap;html=1;fontSize=17;verticalAlign=top;fontStyle=1;dashed=1;" parent="1" vertex="1">
          <mxGeometry x="670" y="1161" width="870" height="370" as="geometry" />
        </mxCell>
        <mxCell id="-8Tr_37V5giMrNJfVFZ_-36" value="&lt;p style=&quot;margin: 4px 0px 0px; text-align: center;&quot;&gt;&lt;u&gt;M4: Location Event processor&lt;/u&gt;&lt;/p&gt;&lt;p style=&quot;margin: 4px 0px 0px; text-align: center;&quot;&gt;&lt;u&gt;&lt;br&gt;&lt;/u&gt;&lt;/p&gt;&lt;p style=&quot;margin: 4px 0px 0px; text-align: center;&quot;&gt;&lt;u&gt;&lt;br&gt;&lt;/u&gt;&lt;/p&gt;&lt;p style=&quot;margin: 4px 0px 0px; text-align: center;&quot;&gt;&lt;u&gt;&lt;br&gt;&lt;/u&gt;&lt;/p&gt;&lt;p style=&quot;margin: 4px 0px 0px; text-align: center;&quot;&gt;&lt;u&gt;&lt;br&gt;&lt;/u&gt;&lt;/p&gt;&lt;p style=&quot;margin: 4px 0px 0px; text-align: center;&quot;&gt;&lt;span style=&quot;font-weight: normal;&quot;&gt;&lt;font style=&quot;font-size: 10px;&quot;&gt;-&amp;nbsp;Data striping / transposing&lt;/font&gt;&lt;/span&gt;&lt;/p&gt;&lt;p style=&quot;margin: 4px 0px 0px; text-align: center;&quot;&gt;&lt;span style=&quot;font-weight: normal;&quot;&gt;&lt;font style=&quot;font-size: 10px;&quot;&gt;- Maintains referential integrity&lt;/font&gt;&lt;/span&gt;&lt;/p&gt;&lt;p style=&quot;margin: 4px 0px 0px; text-align: center;&quot;&gt;&lt;span style=&quot;font-size: x-small; font-weight: normal;&quot;&gt;-&amp;nbsp;&lt;/span&gt;&lt;span style=&quot;font-size: x-small; font-weight: 400;&quot;&gt;change data capture (history ID)&lt;/span&gt;&lt;span style=&quot;font-weight: normal;&quot;&gt;&lt;font style=&quot;font-size: 10px;&quot;&gt;&lt;br&gt;&lt;/font&gt;&lt;/span&gt;&lt;/p&gt;" style="verticalAlign=middle;align=center;overflow=fill;fontSize=12;fontFamily=Helvetica;html=1;rounded=1;fontStyle=1;strokeWidth=3;fillColor=#dae8fc;strokeColor=#6c8ebf;" parent="1" vertex="1">
          <mxGeometry x="710" y="1266.5" width="182.5" height="170" as="geometry" />
        </mxCell>
        <mxCell id="-8Tr_37V5giMrNJfVFZ_-37" value="data-market-place-&lt;span style=&quot;background-color: rgb(255, 255, 255);&quot;&gt;location-&lt;/span&gt;&lt;br&gt;event-processsor" style="shape=hexagon;perimeter=hexagonPerimeter2;whiteSpace=wrap;html=1;fixedSize=1;fontSize=12;" parent="1" vertex="1">
          <mxGeometry x="730.5" y="1291.5" width="130" height="55" as="geometry" />
        </mxCell>
        <mxCell id="-8Tr_37V5giMrNJfVFZ_-38" value="" style="curved=1;endArrow=classic;html=1;rounded=0;exitX=0.5;exitY=1;exitDx=0;exitDy=0;entryX=0;entryY=0.5;entryDx=0;entryDy=0;" parent="1" target="-8Tr_37V5giMrNJfVFZ_-36" edge="1">
          <mxGeometry width="50" height="50" relative="1" as="geometry">
            <mxPoint x="1436" y="1094" as="sourcePoint" />
            <mxPoint x="1359.25" y="1095" as="targetPoint" />
            <Array as="points">
              <mxPoint x="1320" y="1095" />
              <mxPoint x="860" y="1160" />
              <mxPoint x="650" y="1250" />
            </Array>
          </mxGeometry>
        </mxCell>
        <mxCell id="-8Tr_37V5giMrNJfVFZ_-41" value="&lt;u&gt;Location&lt;/u&gt;&lt;u&gt;&amp;nbsp;Current topic&lt;/u&gt;" style="verticalAlign=middle;align=center;overflow=fill;fontSize=12;fontFamily=Helvetica;html=1;rounded=1;fontStyle=1;strokeWidth=3;" parent="1" vertex="1">
          <mxGeometry x="950.31" y="1270.5" width="180" height="60" as="geometry" />
        </mxCell>
        <mxCell id="-8Tr_37V5giMrNJfVFZ_-42" value="&lt;u&gt;Location&lt;/u&gt;&lt;u&gt;&amp;nbsp;History topic&lt;/u&gt;" style="verticalAlign=middle;align=center;overflow=fill;fontSize=12;fontFamily=Helvetica;html=1;rounded=1;fontStyle=1;strokeWidth=3;" parent="1" vertex="1">
          <mxGeometry x="955.81" y="1419" width="174.19" height="60" as="geometry" />
        </mxCell>
        <mxCell id="-8Tr_37V5giMrNJfVFZ_-43" value="&lt;p style=&quot;margin: 0px; margin-top: 4px; text-align: center; text-decoration: underline;&quot;&gt;&lt;/p&gt;&lt;p style=&quot;margin: 0px; margin-left: 8px;&quot;&gt;&lt;u&gt;Kafka connect&lt;/u&gt;&lt;/p&gt;&lt;p style=&quot;margin: 0px; margin-left: 8px;&quot;&gt;&lt;br&gt;&lt;/p&gt;&lt;p style=&quot;margin: 0px; margin-left: 8px;&quot;&gt;Current Kafka&amp;nbsp;&lt;/p&gt;&lt;p style=&quot;margin: 0px; margin-left: 8px;&quot;&gt;sink connector&lt;/p&gt;" style="verticalAlign=middle;align=center;overflow=fill;fontSize=12;fontFamily=Helvetica;html=1;rounded=1;fontStyle=1;strokeWidth=3;fillColor=#E6FFCC" parent="1" vertex="1">
          <mxGeometry x="1202.81" y="1221" width="110" height="90" as="geometry" />
        </mxCell>
        <mxCell id="-8Tr_37V5giMrNJfVFZ_-44" value="Location History store" style="shape=cylinder3;whiteSpace=wrap;html=1;boundedLbl=1;backgroundOutline=1;size=15;fontSize=17;" parent="1" vertex="1">
          <mxGeometry x="1365.62" y="1361" width="104.38" height="80" as="geometry" />
        </mxCell>
        <mxCell id="-8Tr_37V5giMrNJfVFZ_-45" value="Location Current store" style="shape=cylinder3;whiteSpace=wrap;html=1;boundedLbl=1;backgroundOutline=1;size=15;fontSize=17;" parent="1" vertex="1">
          <mxGeometry x="1361" y="1221" width="109" height="80" as="geometry" />
        </mxCell>
        <mxCell id="-8Tr_37V5giMrNJfVFZ_-46" value="" style="curved=1;endArrow=classic;html=1;rounded=0;exitX=1;exitY=0.5;exitDx=0;exitDy=0;entryX=0;entryY=0.5;entryDx=0;entryDy=0;" parent="1" source="-8Tr_37V5giMrNJfVFZ_-41" target="-8Tr_37V5giMrNJfVFZ_-43" edge="1">
          <mxGeometry width="50" height="50" relative="1" as="geometry">
            <mxPoint x="284.8571428571429" y="891" as="sourcePoint" />
            <mxPoint x="250" y="1011" as="targetPoint" />
            <Array as="points">
              <mxPoint x="1160" y="1301" />
            </Array>
          </mxGeometry>
        </mxCell>
        <mxCell id="-8Tr_37V5giMrNJfVFZ_-47" value="" style="curved=1;endArrow=classic;html=1;rounded=0;exitX=1;exitY=0.5;exitDx=0;exitDy=0;entryX=0;entryY=0.5;entryDx=0;entryDy=0;entryPerimeter=0;" parent="1" source="-8Tr_37V5giMrNJfVFZ_-43" target="-8Tr_37V5giMrNJfVFZ_-45" edge="1">
          <mxGeometry width="50" height="50" relative="1" as="geometry">
            <mxPoint x="284.8571428571429" y="891" as="sourcePoint" />
            <mxPoint x="250" y="1011" as="targetPoint" />
            <Array as="points">
              <mxPoint x="1320" y="1281" />
            </Array>
          </mxGeometry>
        </mxCell>
        <mxCell id="-8Tr_37V5giMrNJfVFZ_-50" value="" style="curved=1;endArrow=classic;html=1;rounded=0;exitX=1;exitY=0.5;exitDx=0;exitDy=0;entryX=0;entryY=0.5;entryDx=0;entryDy=0;" parent="1" source="-8Tr_37V5giMrNJfVFZ_-42" target="-8Tr_37V5giMrNJfVFZ_-99" edge="1">
          <mxGeometry width="50" height="50" relative="1" as="geometry">
            <mxPoint x="1140.31" y="1285" as="sourcePoint" />
            <mxPoint x="1202.81" y="1455" as="targetPoint" />
            <Array as="points">
              <mxPoint x="1163" y="1450" />
            </Array>
          </mxGeometry>
        </mxCell>
        <mxCell id="-8Tr_37V5giMrNJfVFZ_-51" value="" style="curved=1;endArrow=classic;html=1;rounded=0;entryX=0;entryY=0;entryDx=0;entryDy=52.5;entryPerimeter=0;" parent="1" target="-8Tr_37V5giMrNJfVFZ_-44" edge="1">
          <mxGeometry width="50" height="50" relative="1" as="geometry">
            <mxPoint x="1310" y="1420" as="sourcePoint" />
            <mxPoint x="1366.62" y="1231" as="targetPoint" />
            <Array as="points">
              <mxPoint x="1320" y="1430" />
            </Array>
          </mxGeometry>
        </mxCell>
        <mxCell id="-8Tr_37V5giMrNJfVFZ_-52" value="RU (Dev/&#xa;subscription)" style="whiteSpace=wrap;align=center;verticalAlign=middle;fontStyle=1;strokeWidth=3;fillColor=#FFFFCC" parent="1" vertex="1">
          <mxGeometry x="-146.25" y="969" width="90" height="42" as="geometry" />
        </mxCell>
        <mxCell id="-8Tr_37V5giMrNJfVFZ_-54" value="Brain (financial approval)" style="whiteSpace=wrap;align=center;verticalAlign=middle;fontStyle=1;strokeWidth=3;fillColor=#FFFFCC" parent="1" vertex="1">
          <mxGeometry x="-146.25" y="1019" width="90" height="47" as="geometry" />
        </mxCell>
        <mxCell id="-8Tr_37V5giMrNJfVFZ_-55" value="GLM" style="whiteSpace=wrap;align=center;verticalAlign=middle;fontStyle=1;strokeWidth=3;fillColor=#FFFFCC" parent="1" vertex="1">
          <mxGeometry x="-146.25" y="860" width="90" height="46" as="geometry" />
        </mxCell>
        <mxCell id="-8Tr_37V5giMrNJfVFZ_-56" value="" style="outlineConnect=0;dashed=0;verticalLabelPosition=bottom;verticalAlign=top;align=center;html=1;shape=mxgraph.aws3.queue;fillColor=#D9A741;gradientColor=none;" parent="1" vertex="1">
          <mxGeometry x="1016.63" y="1080" width="55.75" height="10" as="geometry" />
        </mxCell>
        <mxCell id="-8Tr_37V5giMrNJfVFZ_-57" value="Partition0" style="text;spacingTop=-5;align=center" parent="1" vertex="1">
          <mxGeometry x="1103.38" y="1075" width="30" height="20" as="geometry" />
        </mxCell>
        <mxCell id="-8Tr_37V5giMrNJfVFZ_-58" value="" style="outlineConnect=0;dashed=0;verticalLabelPosition=bottom;verticalAlign=top;align=center;html=1;shape=mxgraph.aws3.queue;fillColor=#D9A741;gradientColor=none;" parent="1" vertex="1">
          <mxGeometry x="1376.6200000000001" y="1080" width="55.75" height="10" as="geometry" />
        </mxCell>
        <mxCell id="-8Tr_37V5giMrNJfVFZ_-59" value="Partition0" style="text;spacingTop=-5;align=center" parent="1" vertex="1">
          <mxGeometry x="1463.3700000000001" y="1075" width="30" height="20" as="geometry" />
        </mxCell>
        <mxCell id="-8Tr_37V5giMrNJfVFZ_-62" value="" style="outlineConnect=0;dashed=0;verticalLabelPosition=bottom;verticalAlign=top;align=center;html=1;shape=mxgraph.aws3.queue;fillColor=#D9A741;gradientColor=none;" parent="1" vertex="1">
          <mxGeometry x="974.94" y="1449" width="55.75" height="10" as="geometry" />
        </mxCell>
        <mxCell id="-8Tr_37V5giMrNJfVFZ_-63" value="Partition0" style="text;spacingTop=-5;align=center" parent="1" vertex="1">
          <mxGeometry x="1061.69" y="1444" width="30" height="20" as="geometry" />
        </mxCell>
        <mxCell id="-8Tr_37V5giMrNJfVFZ_-64" value="" style="outlineConnect=0;dashed=0;verticalLabelPosition=bottom;verticalAlign=top;align=center;html=1;shape=mxgraph.aws3.queue;fillColor=#D9A741;gradientColor=none;" parent="1" vertex="1">
          <mxGeometry x="972.8100000000002" y="1300.5" width="55.75" height="10" as="geometry" />
        </mxCell>
        <mxCell id="-8Tr_37V5giMrNJfVFZ_-65" value="Partition0" style="text;spacingTop=-5;align=center" parent="1" vertex="1">
          <mxGeometry x="1059.5600000000002" y="1295.5" width="30" height="20" as="geometry" />
        </mxCell>
        <mxCell id="-8Tr_37V5giMrNJfVFZ_-66" value="" style="curved=1;endArrow=classic;html=1;rounded=0;entryX=0.004;entryY=0.375;entryDx=0;entryDy=0;entryPerimeter=0;exitX=1;exitY=0.5;exitDx=0;exitDy=0;" parent="1" source="-8Tr_37V5giMrNJfVFZ_-36" target="-8Tr_37V5giMrNJfVFZ_-41" edge="1">
          <mxGeometry width="50" height="50" relative="1" as="geometry">
            <mxPoint x="945.31" y="1536" as="sourcePoint" />
            <mxPoint x="1090.33" y="1398.02" as="targetPoint" />
            <Array as="points">
              <mxPoint x="930" y="1341" />
            </Array>
          </mxGeometry>
        </mxCell>
        <mxCell id="-8Tr_37V5giMrNJfVFZ_-69" value="" style="curved=1;endArrow=classic;html=1;rounded=0;exitX=1;exitY=0.75;exitDx=0;exitDy=0;entryX=0;entryY=0.5;entryDx=0;entryDy=0;" parent="1" source="-8Tr_37V5giMrNJfVFZ_-36" target="-8Tr_37V5giMrNJfVFZ_-42" edge="1">
          <mxGeometry width="50" height="50" relative="1" as="geometry">
            <mxPoint x="945.31" y="1495.5" as="sourcePoint" />
            <mxPoint x="1089.56" y="1502.4356872635562" as="targetPoint" />
            <Array as="points">
              <mxPoint x="930" y="1410" />
            </Array>
          </mxGeometry>
        </mxCell>
        <mxCell id="-8Tr_37V5giMrNJfVFZ_-84" value="&lt;u&gt;DLQ topic&lt;/u&gt;" style="verticalAlign=middle;align=center;overflow=fill;fontSize=12;fontFamily=Helvetica;html=1;rounded=1;fontStyle=1;strokeWidth=3;fillColor=#f8cecc;strokeColor=#b85450;" parent="1" vertex="1">
          <mxGeometry x="353.7499999999999" y="1270" width="180" height="50" as="geometry" />
        </mxCell>
        <mxCell id="-8Tr_37V5giMrNJfVFZ_-85" value="" style="outlineConnect=0;dashed=0;verticalLabelPosition=bottom;verticalAlign=top;align=center;html=1;shape=mxgraph.aws3.queue;fillColor=#D9A741;gradientColor=none;" parent="1" vertex="1">
          <mxGeometry x="357.9999999999999" y="1296.5" width="55.75" height="10" as="geometry" />
        </mxCell>
        <mxCell id="-8Tr_37V5giMrNJfVFZ_-86" value="Partition0" style="text;spacingTop=-5;align=center" parent="1" vertex="1">
          <mxGeometry x="429.7499999999999" y="1294" width="30" height="20" as="geometry" />
        </mxCell>
        <mxCell id="-8Tr_37V5giMrNJfVFZ_-91" value="&lt;p style=&quot;margin: 4px 0px 0px; text-align: center;&quot;&gt;&lt;u&gt;Location&amp;nbsp;&lt;/u&gt;&lt;/p&gt;&lt;p style=&quot;margin: 4px 0px 0px; text-align: center;&quot;&gt;&lt;u&gt;Domain Service&lt;/u&gt;&lt;/p&gt;" style="verticalAlign=middle;align=center;overflow=fill;fontSize=12;fontFamily=Helvetica;html=1;rounded=1;fontStyle=1;strokeWidth=3;fillColor=#dae8fc;strokeColor=#6c8ebf;" parent="1" vertex="1">
          <mxGeometry x="-72.3" y="1342.5" width="152.25" height="40" as="geometry" />
        </mxCell>
        <mxCell id="-8Tr_37V5giMrNJfVFZ_-92" value="&lt;p style=&quot;margin: 0px; margin-top: 4px; text-align: center; text-decoration: underline;&quot;&gt;&lt;/p&gt;&lt;p style=&quot;margin: 0px; margin-left: 8px;&quot;&gt;&lt;u&gt;Kafka connector&lt;/u&gt;&lt;/p&gt;" style="verticalAlign=middle;align=center;overflow=fill;fontSize=12;fontFamily=Helvetica;html=1;rounded=1;fontStyle=1;strokeWidth=3;fillColor=#E6FFCC" parent="1" vertex="1">
          <mxGeometry x="-72.28999999999999" y="1392.5" width="152.24" height="40" as="geometry" />
        </mxCell>
        <mxCell id="-8Tr_37V5giMrNJfVFZ_-93" value="&lt;u&gt;Operations topics&lt;/u&gt;" style="verticalAlign=middle;align=center;overflow=fill;fontSize=12;fontFamily=Helvetica;html=1;rounded=1;fontStyle=1;strokeWidth=3;fillColor=#f8cecc;strokeColor=#b85450;" parent="1" vertex="1">
          <mxGeometry x="-72.41999999999999" y="1482.5" width="155" height="30" as="geometry" />
        </mxCell>
        <mxCell id="-8Tr_37V5giMrNJfVFZ_-94" value="&lt;u&gt;Pipeline&amp;nbsp;topics&lt;/u&gt;" style="verticalAlign=middle;align=center;overflow=fill;fontSize=12;fontFamily=Helvetica;html=1;rounded=1;fontStyle=1;strokeWidth=3;" parent="1" vertex="1">
          <mxGeometry x="-72.29999999999998" y="1442.5" width="154.88" height="30" as="geometry" />
        </mxCell>
        <mxCell id="-8Tr_37V5giMrNJfVFZ_-97" value="Legend" style="text;html=1;strokeColor=none;fillColor=none;align=center;verticalAlign=middle;whiteSpace=wrap;rounded=0;" parent="1" vertex="1">
          <mxGeometry x="-150.05" y="1282.5" width="113.75" height="30" as="geometry" />
        </mxCell>
        <mxCell id="-8Tr_37V5giMrNJfVFZ_-98" value="Data sources" style="whiteSpace=wrap;align=center;verticalAlign=middle;fontStyle=1;strokeWidth=3;fillColor=#FFFFCC" parent="1" vertex="1">
          <mxGeometry x="-71.17" y="1303.5" width="151.12" height="29" as="geometry" />
        </mxCell>
        <mxCell id="-8Tr_37V5giMrNJfVFZ_-99" value="&lt;p style=&quot;margin: 0px; margin-top: 4px; text-align: center; text-decoration: underline;&quot;&gt;&lt;/p&gt;&lt;p style=&quot;margin: 0px; margin-left: 8px;&quot;&gt;&lt;u&gt;Kafka connect&lt;/u&gt;&lt;/p&gt;&lt;p style=&quot;margin: 0px; margin-left: 8px;&quot;&gt;&lt;br&gt;&lt;/p&gt;&lt;p style=&quot;margin: 0px; margin-left: 8px;&quot;&gt;History Kafka&amp;nbsp;&lt;/p&gt;&lt;p style=&quot;margin: 0px; margin-left: 8px;&quot;&gt;sink connector&lt;/p&gt;" style="verticalAlign=middle;align=center;overflow=fill;fontSize=12;fontFamily=Helvetica;html=1;rounded=1;fontStyle=1;strokeWidth=3;fillColor=#E6FFCC" parent="1" vertex="1">
          <mxGeometry x="1202.81" y="1360" width="110" height="90" as="geometry" />
        </mxCell>
        <mxCell id="Tz4eqZr4U1t7X80AzE3W-1" value="&lt;u&gt;Event store topic&lt;/u&gt;" style="verticalAlign=middle;align=center;overflow=fill;fontSize=12;fontFamily=Helvetica;html=1;rounded=1;fontStyle=1;strokeWidth=3;fillColor=#f8cecc;strokeColor=#b85450;" parent="1" vertex="1">
          <mxGeometry x="353.7499999999999" y="1330" width="180" height="50" as="geometry" />
        </mxCell>
        <mxCell id="Tz4eqZr4U1t7X80AzE3W-2" value="" style="outlineConnect=0;dashed=0;verticalLabelPosition=bottom;verticalAlign=top;align=center;html=1;shape=mxgraph.aws3.queue;fillColor=#D9A741;gradientColor=none;" parent="1" vertex="1">
          <mxGeometry x="357.9999999999999" y="1360" width="55.75" height="10" as="geometry" />
        </mxCell>
        <mxCell id="Tz4eqZr4U1t7X80AzE3W-3" value="Partition0" style="text;spacingTop=-5;align=center" parent="1" vertex="1">
          <mxGeometry x="431.8799999999999" y="1355" width="30" height="20" as="geometry" />
        </mxCell>
        <mxCell id="Tz4eqZr4U1t7X80AzE3W-5" value="&lt;font style=&quot;font-size: 14px;&quot;&gt;Exception store&lt;/font&gt;" style="shape=cylinder3;whiteSpace=wrap;html=1;boundedLbl=1;backgroundOutline=1;size=4;fontSize=17;" parent="1" vertex="1">
          <mxGeometry x="550.62" y="1210" width="96" height="50" as="geometry" />
        </mxCell>
        <mxCell id="7GBbqw52VXPi2Agrig69-1" value="" style="curved=1;endArrow=classic;html=1;rounded=0;exitX=1;exitY=0.75;exitDx=0;exitDy=0;entryX=0.001;entryY=0.134;entryDx=0;entryDy=0;entryPerimeter=0;" parent="1" source="-8Tr_37V5giMrNJfVFZ_-55" edge="1" target="j1Fs5PiYSmfmpDfGVvOQ-4">
          <mxGeometry width="50" height="50" relative="1" as="geometry">
            <mxPoint x="160" y="975" as="sourcePoint" />
            <mxPoint x="30" y="895" as="targetPoint" />
            <Array as="points">
              <mxPoint x="-20" y="905" />
            </Array>
          </mxGeometry>
        </mxCell>
        <mxCell id="7GBbqw52VXPi2Agrig69-2" value="" style="curved=1;endArrow=classic;html=1;rounded=0;exitX=1;exitY=0.5;exitDx=0;exitDy=0;entryX=-0.008;entryY=0.294;entryDx=0;entryDy=0;entryPerimeter=0;" parent="1" source="-8Tr_37V5giMrNJfVFZ_-6" edge="1" target="j1Fs5PiYSmfmpDfGVvOQ-4">
          <mxGeometry width="50" height="50" relative="1" as="geometry">
            <mxPoint x="-68.25" y="952" as="sourcePoint" />
            <mxPoint x="30" y="965" as="targetPoint" />
            <Array as="points">
              <mxPoint x="-20" y="955" />
            </Array>
          </mxGeometry>
        </mxCell>
        <mxCell id="7GBbqw52VXPi2Agrig69-3" value="" style="curved=1;endArrow=classic;html=1;rounded=0;exitX=0.993;exitY=0.46;exitDx=0;exitDy=0;entryX=0.003;entryY=0.46;entryDx=0;entryDy=0;exitPerimeter=0;entryPerimeter=0;" parent="1" source="-8Tr_37V5giMrNJfVFZ_-52" target="j1Fs5PiYSmfmpDfGVvOQ-4" edge="1">
          <mxGeometry width="50" height="50" relative="1" as="geometry">
            <mxPoint x="-68.25" y="1021" as="sourcePoint" />
            <mxPoint x="27" y="1035" as="targetPoint" />
            <Array as="points">
              <mxPoint x="-10" y="1005" />
            </Array>
          </mxGeometry>
        </mxCell>
        <mxCell id="7GBbqw52VXPi2Agrig69-4" value="" style="curved=1;endArrow=classic;html=1;rounded=0;entryX=-0.003;entryY=0.673;entryDx=0;entryDy=0;exitX=1.004;exitY=0.573;exitDx=0;exitDy=0;exitPerimeter=0;entryPerimeter=0;" parent="1" source="-8Tr_37V5giMrNJfVFZ_-54" target="j1Fs5PiYSmfmpDfGVvOQ-4" edge="1">
          <mxGeometry width="50" height="50" relative="1" as="geometry">
            <mxPoint x="-68.25" y="1085" as="sourcePoint" />
            <mxPoint x="27" y="1100" as="targetPoint" />
            <Array as="points">
              <mxPoint x="-10" y="1065" />
            </Array>
          </mxGeometry>
        </mxCell>
        <mxCell id="7GBbqw52VXPi2Agrig69-8" value="Mass mkt-&#xa;enabled" style="text;spacingTop=-5;align=center" parent="1" vertex="1">
          <mxGeometry x="-28.74000000000001" y="955" width="30" height="20" as="geometry" />
        </mxCell>
        <mxCell id="7GBbqw52VXPi2Agrig69-9" value="Enterprise- &#xa;planning to &#xa;enabled" style="text;spacingTop=-5;align=center" parent="1" vertex="1">
          <mxGeometry x="-28.74000000000001" y="845" width="30" height="20" as="geometry" />
        </mxCell>
        <mxCell id="7GBbqw52VXPi2Agrig69-10" value="Mass mkt-&#xa;to be enabled" style="text;spacingTop=-5;align=center" parent="1" vertex="1">
          <mxGeometry x="-28.74000000000001" y="903" width="30" height="20" as="geometry" />
        </mxCell>
        <mxCell id="7GBbqw52VXPi2Agrig69-12" value="Mass mkt-&#xa;to be enabled" style="text;spacingTop=-5;align=center" parent="1" vertex="1">
          <mxGeometry x="-30.00000000000001" y="1005" width="30" height="20" as="geometry" />
        </mxCell>
        <mxCell id="B21y94GkO6KhpNopeqbn-25" value="&lt;u&gt;GLM ingestion topics&lt;/u&gt;" style="verticalAlign=middle;align=center;overflow=fill;fontSize=12;fontFamily=Helvetica;html=1;rounded=1;fontStyle=1;strokeWidth=3;" parent="1" vertex="1">
          <mxGeometry x="200" y="848" width="140" height="45" as="geometry" />
        </mxCell>
        <mxCell id="B21y94GkO6KhpNopeqbn-26" value="" style="outlineConnect=0;dashed=0;verticalLabelPosition=bottom;verticalAlign=top;align=center;html=1;shape=mxgraph.aws3.queue;fillColor=#D9A741;gradientColor=none;" parent="1" vertex="1">
          <mxGeometry x="204.25" y="868" width="55.75" height="10" as="geometry" />
        </mxCell>
        <mxCell id="B21y94GkO6KhpNopeqbn-27" value="" style="outlineConnect=0;dashed=0;verticalLabelPosition=bottom;verticalAlign=top;align=center;html=1;shape=mxgraph.aws3.queue;fillColor=#D9A741;gradientColor=none;" parent="1" vertex="1">
          <mxGeometry x="204.25" y="881" width="55.75" height="10" as="geometry" />
        </mxCell>
        <mxCell id="B21y94GkO6KhpNopeqbn-28" value="Initial" style="text;spacingTop=-5;align=center" parent="1" vertex="1">
          <mxGeometry x="276" y="862" width="30" height="20" as="geometry" />
        </mxCell>
        <mxCell id="B21y94GkO6KhpNopeqbn-29" value="Delta Load" style="text;spacingTop=-5;align=center" parent="1" vertex="1">
          <mxGeometry x="290" y="876" width="31" height="1" as="geometry" />
        </mxCell>
        <mxCell id="B21y94GkO6KhpNopeqbn-32" value="" style="curved=1;endArrow=classic;html=1;rounded=0;exitX=1;exitY=0.5;exitDx=0;exitDy=0;entryX=0;entryY=0.5;entryDx=0;entryDy=0;" parent="1" target="B21y94GkO6KhpNopeqbn-25" edge="1">
          <mxGeometry width="50" height="50" relative="1" as="geometry">
            <mxPoint x="137" y="870" as="sourcePoint" />
            <mxPoint x="265.6300000000001" y="929.5747697870179" as="targetPoint" />
            <Array as="points">
              <mxPoint x="170" y="883" />
            </Array>
          </mxGeometry>
        </mxCell>
        <mxCell id="B21y94GkO6KhpNopeqbn-34" value="" style="shape=image;verticalLabelPosition=bottom;labelBackgroundColor=default;verticalAlign=top;aspect=fixed;imageAspect=0;image=data:image/png,iVBORw0KGgoAAAANSUhEUgAAAF8AAABICAYAAACQnynWAAAAAXNSR0IArs4c6QAAAHhlWElmTU0AKgAAAAgABAEaAAUAAAABAAAAPgEbAAUAAAABAAAARgEoAAMAAAABAAIAAIdpAAQAAAABAAAATgAAAAAAAABIAAAAAQAAAEgAAAABAAOgAQADAAAAAQABAACgAgAEAAAAAQAAAF+gAwAEAAAAAQAAAEgAAAAAlH2X7gAAAAlwSFlzAAALEwAACxMBAJqcGAAAFS5JREFUeAHtnAlwnEV2gN/M6L6twzbyJYMvAQZz+MAclrnNwu5mwcux2UoC2CRQqQXvFlXZqlRIVZKtyu6yySZVSThCks2xteaKbQIGbGzAtzG+wBf4lq37ss7RjCbva+mNf40lWZZl10j4Vf3Tf3e/7r//16/f1f2PTzrBV/zekh9GfL6nfOK7lqKIRHb4IpF/2XPvi79x2U68S7+DSAGf/G5hoDhnwv9onwt76Xfpnrojj8r3l4Z7qb9UPEAK+KdljX9W255BeF0B1uXCaTnjfmSZS+ngUcAvPt8i6+5vr35U/mnG4zI3d7K8fP2TVqwyyL/4dObS3WBRwK+ULbLO/D6/tEfCsrXukCT6E5T3jftP4xjupfT8KZAg4jus3UylqyPNVfIPX6+UOwqulmBHuyTrBLRq2oUDypCBl156KRKPg02Vtu0/XPyn1zG2BIlEXlbR8wsyEB5YVblbVld+gcXj8rMb8gJL4vRl3AD1x+fzreno6Fj71FNPvUDZ0aNHZVZovUwf0SRpCRFpDvmVoXySmRiWkSkh2VefoszVIXl6n+CLyKlQQDISOiSg9416f6Chs35qdgu9S1hJkeiPSEogIqtOZsnMvCYJaVlKoENawgHJSgzpMwKKGdHndUhNMME9p7YtIFuqM2RWfqPkJIXlX5P+eAbjAxL2Nhz9O7V2Zut9N6VrhL8mXCB/NfcHk8YWjnEN4vXn5MmTJVwvv/zyvEWLFs1nnHcX1skbR3Jlf0OazBtdL0lKvBXHR8gcJUR6QliJkiWZmraG/dKh+OUtSdIRiTgiMUkQ+2BjilS3JTiCUvadcbVucrZWp8sJxW/XhkxmUzvqU7S9T5p0opnM/OSQFOvk1QcDsrY8S0pGNYgknaZgQJZ+Gan6zfrXC34w56BO5CiV87la3Z4VTiz/w8xZ2T8veVKys7JOt4jTu8zMTLnsssvkxIkTRSUlJb66urqS4Kkqx8lZynEZSuTDTcnKoR3Kmz7JVkLCnVOy2nRyUiVL6zO1bvqIZjmkBC9IaVduh5DK1do+TwnJZIR09dS0JUqVXqfaA7qa/I7jk3UFTM5qdW0ztG9WEZNKOc+bmNEmSbpqDqRcL8uXL/9LyKgy30FEnan/0DsuB8pBH31rxtxxVVVVcuzYMamurpb58+eLvpRkZGRIa2urbN68WebOnSspKSnS1tYmO3fulOuuu06am5sdzpo1a2T27NmSlJQkqampro/c3Fw5deqUZOmEgkdbFRfS2NgopaWl7mIAd999t7S0tEg4HBa/3y8JCQny2WefyfTp011/oVDIjYGx0L/BDTfcIGVlZfOKiopkQfA9V6zM3JnqrzKnE6Z+vbl6BCJFnEiqU+68u7Dece+s/CaX0g5uttQh68/U7FZ3u74iQyYpwet1EiE8MCO3OdqGx/I8+ugJjPhn1EUikRI4acuWLfL111/Lvn37pLi4WF555RW56aabJCcnBy6T9evXO/laU1Mj48ePd8R55513HFGzs7Pl888/l+3bt8uVV14phYWF8vHHH8vhw4floYceckTftGmTw4VzmUAIbbBs2TKZOnWqrF69WtLS0oSJGzFihBIj4hiivLzctV248LTEZMyM3fogtZc3GlhqOLMLGu3WpVH8LkTLd0PSzNyRne0QOwaGSxr7HMOx9PSbWklMCsfz0nA9hJw2bZrU19e7lHK4d/To0TJv3jzHzUxCQ0OD424IBqHh8uTkZGEVQbxrr71WxowZIxMmTHDcC9GZUC/hGQaTvWvXLod76623utUEx7PiWCn2nJghu2x7e7suexURrQFpCflURPhlU2WG4/I2LUeOAyuO57iyqtYEFSmiIkVFifryyG3avaP1AAq7VWncoCsE5Qturd7TL/coc5Qr8p2yNm0Lbl/Q6+Rgqqnicm3hNLUmovfcWN4V6g+iA+KBy2q4+eabXRV5LqujneGCQB1g/VEHePHBsXov/rp166LPcY26flRkutU4t2Odk9O7atNU1oclxR+WstbkqFJ9fHKlvK4KOayEI3bCG5apEk0LhKVB5fn49DZX+uCEannraJ5U6gQVqexOUNmfrFe1EhvxheyfqUr8E1WqEzIQPzq5ilupeuH3xtfIuPSglnWCWjuyePFiR8yzcj5N7MXt3pvv7LKTWFZvhLe8cbS1s7zVWzl56qzeyi2Nxfc+hzov5OfnO4V5vCnJEX5MWlByk8NCevPIU85iYWWgQNECTUpA7kYkhZw5eZtaJmWtSVH9gE7IS25X4rY5vCIl8hFV4HUq70eltsvmqgxhRU3ObHWrJl0nG+XN83qDXmW+twHiYv/+/U4BIjKQ98hhFOcdd9zhFB7ihxeGc+H8OXPmOJGE6EFMIf93794t11xzjcsjfgDEQ2Jiomv31ltvycSJE51Iow4RgzLdunVrtD/ylHMhzmyiwPcCz71XTU0Dk8UsNO5NqX6/qNoREzyvguzQjOFQ9+TkCteO+6tyOhX1s8VlZF259Uu+KCPoyuiDldEb9Iv4EPSNN96Q559/Xj744AP3wpQVFBTI0qVLnWXy2muvydNPP+0m4MiRI46YWEZYM8Fg0OURGQcPHnQyH+KjDxAdKEwsnSlTpjiF/f7777vxHjp0SBYsWCDe/uhz5MiRbuJhgrvuuqvHd2NykNsZaj4i37HrES8INZwrHClMwGO6Mg41Jst9Y+pko+oE6lkNM3Kb1E4PO1mP44TZibihDkdsdVm2fGvsmZPLYGyi+yI8eP0iPogPPvigfPLJJ+6l4eK8vDynROFUrBkUMdYHhIE7ERUoRYgMEVGwlKNca2tr6VKKioocHuXUM5GsIJQ2OFdccYWzsrz9obgnT57s8NSpcv309IMy/vlXhXKLiphRqUHZX58lU9ThWX0yxylM5DmyOlftd2z5ZcdGOMJio1e2JsplKkr2NyQo50acI7b0SJ5cndPsnCjKcKbOF/pFfAjKBcC9XLHL3RQhOEwU9ZRVVlY6awiCGXhxsXgACPzYY4+5yZg1a5ZLwWMSWWXWn1f+Y/P3Bog6HBugRjkfzm1TpweZXZjaJhsqM51IGK0T0xJKlNy0kBJUHF6Oyn1WBXL8T6aWybulOa5dqjpMeMl71CkbpU7Y+UK/iO99CC+PszNjxgzncCFWkK9wLI4Xch/49NNPnZym3iYOHREIqCmnYgjnCBECPlyKnrj33nsFkcOKoA1czgRAeMQI7TBv+wP08UfBzliV4evQ5YZIkyM68hygDNMxoCmgj3NlmIuz8gNO+X5XQwoG4N/V5YxZ2UDTcyY+D0Ju48xg0qFYIQ4O1Ouvv96j3Eek4HkiVhAlX3zxhRMz+A2PPPKIfPXVV4649I1fgWP14YcfknW+Ac8yBwxup/5sAJNAqFgwOeytM8KDa+WEGrCKvGUu48Gx/EDTAREfmY8cR87jYBFWgPt7k/vp6elufGPHjnWcO2nSJMfR4Fv4AgID6BJCEUwS1pHlWSE8Cz3SH2DF4OSgHLFj9qmomKBWiEUrCQdQYxHNXBU1yH7wieHUqz7ANziiyrhdlezEzDanEw6cSpFJGRr2EL/ra0pmi+jet4v9oNgRTShmxNPZ4JyJz8sjOm655RZHQB6A+QmneWW5V+5TBxCvAa666qqoDCePvR6Lg9ghTmRyH7xzASykf6sv0MAZUcUEZ4Nvr0l3IWWIe1RtdIDgl4p3uXVkg3yu9SjbFHWyytXGz9MJyVfZvqM2XUPIjS4Ax0SkKYGxkLCU8At+dzhfzc8mF+dZpQody2rxlIqzDveciY+svvPOO13HRjB7ijePKAK8ZYbXV53hWNpTe6vrK0Vf4OQgzxE1EKS0JdlFKyEgHDo2vV3WVWRqSLhTeeK9wrGEDVCoOFYztQzLpkbvJ6kDhaVToRN0ojlJ++yQ3XVpzopiElHsOFVYRf2BPokP1yGDWfpwPJFFXgrligJE1DQ1NYkFxRAvlKNIscHBowwcU6iU0Q/KGcBRMoV74403unYE8+B6U8xM1oYNG6JlPBdrBjN2x44dbuVZ3l4aMTavrcER3spMmVpKOTEbiFyY1u4uc6DAQXAwcRbFxBoiX9bSSWREF2Va1A1Mb3Qr7CHTJ/FZuig+FCYmIy972223OXvfiAeRcMCwzZcsWeJsfRQxYofdJPCYMCYFwAqiv23btsmoUaPcRciaenPg4HbkOx7vuHHjnBMGDnKfQBuTyVgAJgj9g+izMlehP6ZcLW9EsZTy2IimFzeWqNbf6NSQcAFWZu3OJe0ztgNXwvGEAJDzvLx5nyhEiIozZFFNONoUMYq0qKjIiR0IZ8BqwlTFdgeXPqgnjykKINp4Lj4A+wFWxqqxVYVHbOWEJ8xxc4X6AzM0qrmIyYjnSoQSBUxaoUEvystaEjWm43OiZ2dNqq4Cn1sJ1BH3udDQ6xMsqmkKLza1gVm5OUKUUwaYvDYcV6g/5BEjZqZaPSkXYsZ7723HPasQMRPruNnzLKp5XXCDa4ony47SSY1YZquCZB+2RcVNoTpYe+rVYVJvFp3ArlTslqE9e7BSb1SzV7GjL7KGPVEzAe3FLLXBWN6UKOVWFovjzbMDZmD4pD3dx+JhCZnjFltHyEH7WKOrsCRJA+0o1T26WY6FgwI+qhZKoirNXFWMcH62bhFiGmJiEgsi3MAW4/lCmb8w2sVJH/eRiCpuQkfRIH+vxFdOXqvioeT++++PdjIUbiA+Y1enr2RBsN4NGaKzGFmPWzRkgILFS6UMIDHZTZlXJziEPn6MyMd9Y1pP+Ce0hH0JTbWSMzbV17IzHAmoYRUIhjtktQZInJLwK2NYd72KHRB0+X50/fXXO+63FWAN4y2F6OgS3b9dw+kFxObjwX++IMOE4KW+wuBx/+UN1b7c/CRfaHNbR+BdXf1reKA+36Xc9wVncP60lT95QHnhOZ39mS/KXskpO3Rozr68xuLGzN6jWH094SLVIWrgeDu3M9iPheDbArNCbZJc1epLqdRLAz7+v1jcT0L3NJ5uxJ+2csnfKNH/TBdeFLcuMZjxXv5JeTev9Gd773nxp9GKIXCz1T+7IeALZ10WOSGjO06c84gh+GeBWe1BSa6G4O0h35JwYmqov5x9tgdGqQzHK+GXeRuo+lN52CUYtULl4bf33vOL5V6ceL1XkVmiK6EkPdKc7fP77tJza1flSnVlYeiYKtdQttrYp8+bdL1EmX+MnlQNqNwONKlrWaC7D9vCgaSfdHT42c9eM9jv6iH+j1fr0p0/KX2U/Hnx92R99X4pSM6UY8018u9HP3bPHduSKgvLxw32GAatP/V8d+lZnzeVUC/01KlNCHV6Ri0hJRJM1W0R5+vokai2cCD5PWt3IYhtfVsaJX7x+z9WD8eXYcT/oHynlLbWKu/73LlNGqQFdD/19r+2tnGXonDxnNUhvP2JJ574KO4GGDOgMzxcxMxvj62XpaWb5NlJCxzBY9rEbZY9A0xj9Zr/Pm4H6RlYVOGqPN+iMn/+100VwgV8Z8MvPah6vC4rfkWODRSTWMMQcW2Z2Vg9nO/7lRX2lv7BhNt6q7pUPgAKRImPFaMO8M9662NR0XyZX3Blt+o333zTOTaEhLmINhKEUyvDnfEhuEYoedWqVW7HisglgTmioATICJSBA9CGiCc49EVKOJuU0xHUxwbPug1mCGaiYoexY8eryanRqMhzSRH/fKKFiBo4Ppbw4BPg4jpw4ACepYtCEhADOIHAiYRzOe9DCBoiMzF9nfdxDxgGP92Iz/t02fHLLarZ1ztOnDgxGq8n0DVz5kxZuXKl42j2aysqKs7pvA+TTWCNcDKxeULOxP6ZRO95n77GNCzqIH5/QDnVoek5epeStzJve8oMJ7bc8K2evB7AiugRRS9qj/12Q+jKMPahMAlncP65DhpOBSykbPnYfijvqc5b5u2jr7BxbN9DNX/exPe+uDKeO9TKztQDDzzglC/17LmiONmpYpcKpewFvj5B5IDDBLAjhpJFbwxnGFTis7UHYbF63n77bbd5DjE5iea1ZNAF6Au4HouH029smkNsFDSTxZYlOsS7MobbRERNzcF4MbiXPVkICgE51WAHpiA2nxYxMZyGwGzkcyPw+JxI5bxrh4LlKxTKhzPh+6R3fxVurMLbu3dvRMWHK167dm1EiR1FMcVKavdWaXlL6Weg8I1RuLEz6D1HyTETLxgnW9pXnbcfL95wuh9UsTOcCHMx3qWbwvVuIf5j5ED4o/W/DiyafGeP3u3FGNxAnkFYWfXFroG0vdhtopzftYW4TEXCfOL67b5IYHvTMXlm+2vyqwP/d7HHNaDnsYlOPJ8NlQF1cJEbOQ+ppy3E2HF8u7xQrmjJiC2Oqzwcr2GIHw2FjRQI1yV2Is8ptztC/tfMZ+SgxvO31h7Uk7xJ8tvjnae+/ndk6Ud77/nl7XFF7SE+GEd89XVm2nswBa3hdtmixPdGMolyxrsJB+f3tYdr7xgvaTeFy6A21nwlv9b/3clNTO92cgEHSjeV42XcPY5Dle10lfnTX3311bVDQfQ4hcsWor0NhAdq2pvkv3Uv12AobCEOtT3cLmtn+GwhDrk93IFsIdqKuJQOnALR48pV/7lhVf7vz92mW4ijVQEXJHb4k27MvUJ+Ou278ui408e5e3oU/8HDFyJ8CkTKp54E1DQ2Ixs3bnQfVrAfS6iYwBsfLhD95J4vX8DnAwvw+QKRL2K+/PJL99UK+7nsZFmsv6fnx5Zh69u/OcXWxVO+m8K1LUQGiGWz6J7+KVgISTSSvwdAMUMw/hPH/jeBL1z27NnjiEnsnogm4oGvEPnzo/vuuy/6p0iXX365+/cqfb7DYTIg/MMPPxxPdBuUsUQ93PPpTSORgnfJ91fsv7JhYiFkuNaAf5uCkMTu2eMFiNmzD3D4cOefItGWFcRXJ2yo26dC1sdwSrtx/kBf7JlnnjmjKSKE6CUTA8H5qxcAcWSb4XxzxY4XAD6XiRf76y4rd0jD7GdQiN8TTSxsbMQ0HIjPzlYsgG9tvHW9lXtxhur9oIidvl4ezvduIbJP6z0MZaKqrz6Ga90F43wvwbx/VuQ9DIXy5cAVf26HrP+mwQXnfMQOShfxgTLmTy1QsJSzT8vKYF/3mwgXhfO9f4LB8UJsevuG1hTzJeJfIAqY0oX7Yw9D9aRkL9Aw4q7bCy524u6N42hAvRKf2DiO01CDIbmHG0tktuNWrFjhzt/H1sVrfkju4fZGTP167wW1Tr43VD6zGWp7uP8Pj7Tk2nQMueAAAAAASUVORK5CYII=;" parent="1" vertex="1">
          <mxGeometry x="220" y="1910" width="250.69" height="190" as="geometry" />
        </mxCell>
        <mxCell id="j1Fs5PiYSmfmpDfGVvOQ-3" value="&lt;font style=&quot;font-size: 14px;&quot;&gt;Event store&lt;/font&gt;" style="shape=cylinder3;whiteSpace=wrap;html=1;boundedLbl=1;backgroundOutline=1;size=4;fontSize=17;" vertex="1" parent="1">
          <mxGeometry x="550.62" y="1330" width="96" height="50" as="geometry" />
        </mxCell>
        <mxCell id="j1Fs5PiYSmfmpDfGVvOQ-4" value="&lt;font style=&quot;font-size: 12px;&quot;&gt;Each source will &lt;br&gt;follow one of the &lt;br&gt;below Ingestion &lt;br&gt;Patterns:&lt;/font&gt;&lt;br&gt;&lt;span style=&quot;font-weight: normal;&quot;&gt;&lt;br&gt;A. (Standard) &lt;br&gt;Application Level&lt;br&gt;publish&lt;br&gt;&lt;br&gt;&lt;br&gt;B. (By use case) &lt;br&gt;Kafka CDC &lt;br&gt;Connector&lt;br&gt;&lt;br&gt;&lt;br&gt;C. (By waiver)&lt;br&gt;Kafka JDBC &lt;br&gt;Connector&lt;br&gt;&lt;br&gt;&lt;br&gt;D. (By waiver)&lt;br&gt;Custom Script&lt;/span&gt;" style="verticalAlign=middle;align=center;overflow=fill;fontSize=10;fontFamily=Helvetica;rounded=1;fontStyle=1;strokeWidth=3;dashed=1;dashPattern=1 1;html=1;labelPosition=center;verticalLabelPosition=middle;textDirection=ltr;" vertex="1" parent="1">
          <mxGeometry x="30" y="849" width="110" height="306" as="geometry" />
        </mxCell>
        <mxCell id="j1Fs5PiYSmfmpDfGVvOQ-6" value="Network Mesh" style="whiteSpace=wrap;align=center;verticalAlign=middle;fontStyle=1;strokeWidth=3;fillColor=#FFFFCC" vertex="1" parent="1">
          <mxGeometry x="-146.25" y="1074" width="90" height="42" as="geometry" />
        </mxCell>
        <mxCell id="j1Fs5PiYSmfmpDfGVvOQ-7" value="Comsoft" style="whiteSpace=wrap;align=center;verticalAlign=middle;fontStyle=1;strokeWidth=3;fillColor=#FFFFCC" vertex="1" parent="1">
          <mxGeometry x="-146.25" y="1126" width="90" height="42" as="geometry" />
        </mxCell>
        <mxCell id="j1Fs5PiYSmfmpDfGVvOQ-8" value="" style="curved=1;endArrow=classic;html=1;rounded=0;entryX=0.011;entryY=0.83;entryDx=0;entryDy=0;exitX=0.985;exitY=0.56;exitDx=0;exitDy=0;exitPerimeter=0;entryPerimeter=0;" edge="1" parent="1" source="j1Fs5PiYSmfmpDfGVvOQ-6" target="j1Fs5PiYSmfmpDfGVvOQ-4">
          <mxGeometry width="50" height="50" relative="1" as="geometry">
            <mxPoint x="-55.559999999999874" y="1085.181" as="sourcePoint" />
            <mxPoint x="30.00000000000007" y="1084.998" as="targetPoint" />
            <Array as="points">
              <mxPoint x="-9.67" y="1115.25" />
            </Array>
          </mxGeometry>
        </mxCell>
        <mxCell id="j1Fs5PiYSmfmpDfGVvOQ-9" value="" style="curved=1;endArrow=classic;html=1;rounded=0;entryX=0.015;entryY=0.977;entryDx=0;entryDy=0;exitX=1;exitY=0.5;exitDx=0;exitDy=0;entryPerimeter=0;" edge="1" parent="1" source="j1Fs5PiYSmfmpDfGVvOQ-7" target="j1Fs5PiYSmfmpDfGVvOQ-4">
          <mxGeometry width="50" height="50" relative="1" as="geometry">
            <mxPoint x="-56.519999999999946" y="1135.181" as="sourcePoint" />
            <mxPoint x="29.04" y="1134.998" as="targetPoint" />
            <Array as="points">
              <mxPoint x="-10.63" y="1165.25" />
            </Array>
          </mxGeometry>
        </mxCell>
        <mxCell id="j1Fs5PiYSmfmpDfGVvOQ-14" value="&lt;u&gt;NDS ingestion topics&lt;/u&gt;" style="verticalAlign=middle;align=center;overflow=fill;fontSize=12;fontFamily=Helvetica;html=1;rounded=1;fontStyle=1;strokeWidth=3;" vertex="1" parent="1">
          <mxGeometry x="200" y="898" width="140" height="45" as="geometry" />
        </mxCell>
        <mxCell id="j1Fs5PiYSmfmpDfGVvOQ-15" value="" style="outlineConnect=0;dashed=0;verticalLabelPosition=bottom;verticalAlign=top;align=center;html=1;shape=mxgraph.aws3.queue;fillColor=#D9A741;gradientColor=none;" vertex="1" parent="1">
          <mxGeometry x="204.25" y="918" width="55.75" height="10" as="geometry" />
        </mxCell>
        <mxCell id="j1Fs5PiYSmfmpDfGVvOQ-16" value="" style="outlineConnect=0;dashed=0;verticalLabelPosition=bottom;verticalAlign=top;align=center;html=1;shape=mxgraph.aws3.queue;fillColor=#D9A741;gradientColor=none;" vertex="1" parent="1">
          <mxGeometry x="204.25" y="931" width="55.75" height="10" as="geometry" />
        </mxCell>
        <mxCell id="j1Fs5PiYSmfmpDfGVvOQ-17" value="Initial" style="text;spacingTop=-5;align=center" vertex="1" parent="1">
          <mxGeometry x="276" y="912" width="30" height="20" as="geometry" />
        </mxCell>
        <mxCell id="j1Fs5PiYSmfmpDfGVvOQ-18" value="Delta Load" style="text;spacingTop=-5;align=center" vertex="1" parent="1">
          <mxGeometry x="290" y="926" width="31" height="1" as="geometry" />
        </mxCell>
        <mxCell id="j1Fs5PiYSmfmpDfGVvOQ-19" value="" style="curved=1;endArrow=classic;html=1;rounded=0;exitX=1;exitY=0.5;exitDx=0;exitDy=0;entryX=0;entryY=0.5;entryDx=0;entryDy=0;" edge="1" parent="1" target="j1Fs5PiYSmfmpDfGVvOQ-14">
          <mxGeometry width="50" height="50" relative="1" as="geometry">
            <mxPoint x="137" y="920" as="sourcePoint" />
            <mxPoint x="265.6300000000001" y="979.5747697870179" as="targetPoint" />
            <Array as="points">
              <mxPoint x="170" y="933" />
            </Array>
          </mxGeometry>
        </mxCell>
        <mxCell id="j1Fs5PiYSmfmpDfGVvOQ-20" value="&lt;u&gt;RU ingestion topics&lt;/u&gt;" style="verticalAlign=middle;align=center;overflow=fill;fontSize=12;fontFamily=Helvetica;html=1;rounded=1;fontStyle=1;strokeWidth=3;" vertex="1" parent="1">
          <mxGeometry x="200" y="949" width="140" height="45" as="geometry" />
        </mxCell>
        <mxCell id="j1Fs5PiYSmfmpDfGVvOQ-21" value="" style="outlineConnect=0;dashed=0;verticalLabelPosition=bottom;verticalAlign=top;align=center;html=1;shape=mxgraph.aws3.queue;fillColor=#D9A741;gradientColor=none;" vertex="1" parent="1">
          <mxGeometry x="204.25" y="969" width="55.75" height="10" as="geometry" />
        </mxCell>
        <mxCell id="j1Fs5PiYSmfmpDfGVvOQ-22" value="" style="outlineConnect=0;dashed=0;verticalLabelPosition=bottom;verticalAlign=top;align=center;html=1;shape=mxgraph.aws3.queue;fillColor=#D9A741;gradientColor=none;" vertex="1" parent="1">
          <mxGeometry x="204.25" y="982" width="55.75" height="10" as="geometry" />
        </mxCell>
        <mxCell id="j1Fs5PiYSmfmpDfGVvOQ-23" value="Initial" style="text;spacingTop=-5;align=center" vertex="1" parent="1">
          <mxGeometry x="276" y="963" width="30" height="20" as="geometry" />
        </mxCell>
        <mxCell id="j1Fs5PiYSmfmpDfGVvOQ-24" value="Delta Load" style="text;spacingTop=-5;align=center" vertex="1" parent="1">
          <mxGeometry x="290" y="977" width="31" height="1" as="geometry" />
        </mxCell>
        <mxCell id="j1Fs5PiYSmfmpDfGVvOQ-25" value="" style="curved=1;endArrow=classic;html=1;rounded=0;exitX=1;exitY=0.5;exitDx=0;exitDy=0;entryX=0;entryY=0.5;entryDx=0;entryDy=0;" edge="1" parent="1" target="j1Fs5PiYSmfmpDfGVvOQ-20">
          <mxGeometry width="50" height="50" relative="1" as="geometry">
            <mxPoint x="137" y="971" as="sourcePoint" />
            <mxPoint x="265.6300000000001" y="1030.5747697870179" as="targetPoint" />
            <Array as="points">
              <mxPoint x="170" y="984" />
            </Array>
          </mxGeometry>
        </mxCell>
        <mxCell id="j1Fs5PiYSmfmpDfGVvOQ-26" value="&lt;u&gt;Brain ingestion topics&lt;/u&gt;" style="verticalAlign=middle;align=center;overflow=fill;fontSize=12;fontFamily=Helvetica;html=1;rounded=1;fontStyle=1;strokeWidth=3;" vertex="1" parent="1">
          <mxGeometry x="200" y="999.5" width="140" height="45" as="geometry" />
        </mxCell>
        <mxCell id="j1Fs5PiYSmfmpDfGVvOQ-27" value="" style="outlineConnect=0;dashed=0;verticalLabelPosition=bottom;verticalAlign=top;align=center;html=1;shape=mxgraph.aws3.queue;fillColor=#D9A741;gradientColor=none;" vertex="1" parent="1">
          <mxGeometry x="204.25" y="1019.5" width="55.75" height="10" as="geometry" />
        </mxCell>
        <mxCell id="j1Fs5PiYSmfmpDfGVvOQ-28" value="" style="outlineConnect=0;dashed=0;verticalLabelPosition=bottom;verticalAlign=top;align=center;html=1;shape=mxgraph.aws3.queue;fillColor=#D9A741;gradientColor=none;" vertex="1" parent="1">
          <mxGeometry x="204.25" y="1032.5" width="55.75" height="10" as="geometry" />
        </mxCell>
        <mxCell id="j1Fs5PiYSmfmpDfGVvOQ-29" value="Initial" style="text;spacingTop=-5;align=center" vertex="1" parent="1">
          <mxGeometry x="276" y="1013.5" width="30" height="20" as="geometry" />
        </mxCell>
        <mxCell id="j1Fs5PiYSmfmpDfGVvOQ-30" value="Delta Load" style="text;spacingTop=-5;align=center" vertex="1" parent="1">
          <mxGeometry x="290" y="1027.5" width="31" height="1" as="geometry" />
        </mxCell>
        <mxCell id="j1Fs5PiYSmfmpDfGVvOQ-31" value="" style="curved=1;endArrow=classic;html=1;rounded=0;exitX=1;exitY=0.5;exitDx=0;exitDy=0;entryX=0;entryY=0.5;entryDx=0;entryDy=0;" edge="1" parent="1" target="j1Fs5PiYSmfmpDfGVvOQ-26">
          <mxGeometry width="50" height="50" relative="1" as="geometry">
            <mxPoint x="137" y="1021.5" as="sourcePoint" />
            <mxPoint x="265.6300000000001" y="1081.0747697870179" as="targetPoint" />
            <Array as="points">
              <mxPoint x="170" y="1034.5" />
            </Array>
          </mxGeometry>
        </mxCell>
        <mxCell id="j1Fs5PiYSmfmpDfGVvOQ-32" value="&lt;u&gt;Mesh ingestion topics&lt;/u&gt;" style="verticalAlign=middle;align=center;overflow=fill;fontSize=12;fontFamily=Helvetica;html=1;rounded=1;fontStyle=1;strokeWidth=3;" vertex="1" parent="1">
          <mxGeometry x="200" y="1050" width="140" height="45" as="geometry" />
        </mxCell>
        <mxCell id="j1Fs5PiYSmfmpDfGVvOQ-33" value="" style="outlineConnect=0;dashed=0;verticalLabelPosition=bottom;verticalAlign=top;align=center;html=1;shape=mxgraph.aws3.queue;fillColor=#D9A741;gradientColor=none;" vertex="1" parent="1">
          <mxGeometry x="204.25" y="1070" width="55.75" height="10" as="geometry" />
        </mxCell>
        <mxCell id="j1Fs5PiYSmfmpDfGVvOQ-34" value="" style="outlineConnect=0;dashed=0;verticalLabelPosition=bottom;verticalAlign=top;align=center;html=1;shape=mxgraph.aws3.queue;fillColor=#D9A741;gradientColor=none;" vertex="1" parent="1">
          <mxGeometry x="204.25" y="1083" width="55.75" height="10" as="geometry" />
        </mxCell>
        <mxCell id="j1Fs5PiYSmfmpDfGVvOQ-35" value="Initial" style="text;spacingTop=-5;align=center" vertex="1" parent="1">
          <mxGeometry x="276" y="1064" width="30" height="20" as="geometry" />
        </mxCell>
        <mxCell id="j1Fs5PiYSmfmpDfGVvOQ-36" value="Delta Load" style="text;spacingTop=-5;align=center" vertex="1" parent="1">
          <mxGeometry x="290" y="1078" width="31" height="1" as="geometry" />
        </mxCell>
        <mxCell id="j1Fs5PiYSmfmpDfGVvOQ-37" value="" style="curved=1;endArrow=classic;html=1;rounded=0;exitX=1;exitY=0.5;exitDx=0;exitDy=0;entryX=0;entryY=0.5;entryDx=0;entryDy=0;" edge="1" parent="1" target="j1Fs5PiYSmfmpDfGVvOQ-32">
          <mxGeometry width="50" height="50" relative="1" as="geometry">
            <mxPoint x="137" y="1072" as="sourcePoint" />
            <mxPoint x="265.6300000000001" y="1131.5747697870179" as="targetPoint" />
            <Array as="points">
              <mxPoint x="170" y="1085" />
            </Array>
          </mxGeometry>
        </mxCell>
        <mxCell id="j1Fs5PiYSmfmpDfGVvOQ-38" value="&lt;u&gt;Comsof ingestion topics&lt;/u&gt;" style="verticalAlign=middle;align=center;overflow=fill;fontSize=12;fontFamily=Helvetica;html=1;rounded=1;fontStyle=1;strokeWidth=3;" vertex="1" parent="1">
          <mxGeometry x="200" y="1100" width="140" height="45" as="geometry" />
        </mxCell>
        <mxCell id="j1Fs5PiYSmfmpDfGVvOQ-39" value="" style="outlineConnect=0;dashed=0;verticalLabelPosition=bottom;verticalAlign=top;align=center;html=1;shape=mxgraph.aws3.queue;fillColor=#D9A741;gradientColor=none;" vertex="1" parent="1">
          <mxGeometry x="204.25" y="1120" width="55.75" height="10" as="geometry" />
        </mxCell>
        <mxCell id="j1Fs5PiYSmfmpDfGVvOQ-40" value="" style="outlineConnect=0;dashed=0;verticalLabelPosition=bottom;verticalAlign=top;align=center;html=1;shape=mxgraph.aws3.queue;fillColor=#D9A741;gradientColor=none;" vertex="1" parent="1">
          <mxGeometry x="204.25" y="1133" width="55.75" height="10" as="geometry" />
        </mxCell>
        <mxCell id="j1Fs5PiYSmfmpDfGVvOQ-41" value="Initial" style="text;spacingTop=-5;align=center" vertex="1" parent="1">
          <mxGeometry x="276" y="1114" width="30" height="20" as="geometry" />
        </mxCell>
        <mxCell id="j1Fs5PiYSmfmpDfGVvOQ-42" value="Delta Load" style="text;spacingTop=-5;align=center" vertex="1" parent="1">
          <mxGeometry x="290" y="1128" width="31" height="1" as="geometry" />
        </mxCell>
        <mxCell id="j1Fs5PiYSmfmpDfGVvOQ-43" value="" style="curved=1;endArrow=classic;html=1;rounded=0;exitX=1;exitY=0.5;exitDx=0;exitDy=0;entryX=0;entryY=0.5;entryDx=0;entryDy=0;" edge="1" parent="1" target="j1Fs5PiYSmfmpDfGVvOQ-38">
          <mxGeometry width="50" height="50" relative="1" as="geometry">
            <mxPoint x="137" y="1122" as="sourcePoint" />
            <mxPoint x="265.6300000000001" y="1181.5747697870179" as="targetPoint" />
            <Array as="points">
              <mxPoint x="170" y="1135" />
            </Array>
          </mxGeometry>
        </mxCell>
        <mxCell id="j1Fs5PiYSmfmpDfGVvOQ-46" value="" style="shape=singleArrow;whiteSpace=wrap;html=1;dashed=1;dashPattern=1 1;labelBackgroundColor=default;strokeColor=#000000;fontSize=12;fontColor=#000000;" vertex="1" parent="1">
          <mxGeometry x="353.75" y="988" width="30" height="21" as="geometry" />
        </mxCell>
        <mxCell id="j1Fs5PiYSmfmpDfGVvOQ-47" value="&lt;u&gt;GLM ingestion topics&lt;/u&gt;" style="verticalAlign=middle;align=center;overflow=fill;fontSize=12;fontFamily=Helvetica;html=1;rounded=1;fontStyle=1;strokeWidth=3;" vertex="1" parent="1">
          <mxGeometry x="750" y="970" width="140" height="45" as="geometry" />
        </mxCell>
        <mxCell id="j1Fs5PiYSmfmpDfGVvOQ-48" value="" style="outlineConnect=0;dashed=0;verticalLabelPosition=bottom;verticalAlign=top;align=center;html=1;shape=mxgraph.aws3.queue;fillColor=#D9A741;gradientColor=none;" vertex="1" parent="1">
          <mxGeometry x="754.25" y="990" width="55.75" height="10" as="geometry" />
        </mxCell>
        <mxCell id="j1Fs5PiYSmfmpDfGVvOQ-49" value="" style="outlineConnect=0;dashed=0;verticalLabelPosition=bottom;verticalAlign=top;align=center;html=1;shape=mxgraph.aws3.queue;fillColor=#D9A741;gradientColor=none;" vertex="1" parent="1">
          <mxGeometry x="754.25" y="1003" width="55.75" height="10" as="geometry" />
        </mxCell>
        <mxCell id="j1Fs5PiYSmfmpDfGVvOQ-50" value="Initial" style="text;spacingTop=-5;align=center" vertex="1" parent="1">
          <mxGeometry x="826" y="984" width="30" height="20" as="geometry" />
        </mxCell>
        <mxCell id="j1Fs5PiYSmfmpDfGVvOQ-51" value="Delta Load" style="text;spacingTop=-5;align=center" vertex="1" parent="1">
          <mxGeometry x="840" y="998" width="31" height="1" as="geometry" />
        </mxCell>
        <mxCell id="j1Fs5PiYSmfmpDfGVvOQ-52" value="" style="curved=1;endArrow=classic;html=1;rounded=0;exitX=1;exitY=0.5;exitDx=0;exitDy=0;entryX=0;entryY=0.5;entryDx=0;entryDy=0;" edge="1" target="j1Fs5PiYSmfmpDfGVvOQ-47" parent="1">
          <mxGeometry width="50" height="50" relative="1" as="geometry">
            <mxPoint x="687" y="992" as="sourcePoint" />
            <mxPoint x="815.6300000000001" y="1051.5747697870179" as="targetPoint" />
            <Array as="points">
              <mxPoint x="720" y="1005" />
            </Array>
          </mxGeometry>
        </mxCell>
      </root>
    </mxGraphModel>
  </diagram>
</mxfile>
